# XSI Wavefront OBJ Export v3.0
# File Created: Fri Mar 24 01:59:06 2017
# XSI Version: 11.0.525.0
mtllib Normal_SH_Fractional1.mtl

o SH_Fractional1
# Hierarchy (from self to top father)
g SH_Fractional1

#begin 56 vertices
v -4.102313 10.775396 0.312111
v 4.177828 10.775396 0.312111
v -4.102313 10.914934 0.312111
v 4.177828 10.914934 0.312111
v -4.102313 10.775396 0.418317
v 4.177828 10.775396 0.418317
v -4.102313 10.914934 0.418317
v 4.177828 10.914934 0.418317
v -1.378065 14.896617 0.312111
v 4.161987 8.245627 0.312111
v -1.238527 14.896617 0.312111
v 4.301526 8.245627 0.312111
v -1.378065 14.896617 0.418317
v 4.301526 8.245627 0.418317
v -1.238527 14.896617 0.418317
v 4.161987 8.245627 0.418317
v 4.301445 14.896903 0.312111
v -4.166676 14.896903 0.312111
v 4.301445 14.745639 0.312111
v -4.166676 14.745639 0.312111
v 4.301445 14.896903 0.418317
v -4.166676 14.896903 0.418317
v 4.301445 14.745639 0.418317
v -4.166676 14.745639 0.418317
v -4.027208 8.245707 0.312111
v -4.166746 8.245707 0.312111
v -4.166746 8.245707 0.418317
v -4.027208 8.245707 0.418317
v -1.238527 10.813515 0.312111
v -1.378065 10.813515 0.312111
v -1.378065 10.813515 0.418317
v -1.238527 10.813515 0.418317
v -4.027208 14.896989 0.418317
v -4.166746 14.896989 0.418317
v -4.027208 14.896989 0.312111
v -4.166746 14.896989 0.312111
v 4.301526 14.896940 0.418317
v 4.161987 14.896940 0.418317
v 4.301526 14.896940 0.312111
v 4.161987 14.896940 0.312111
v 1.385296 14.896617 0.312111
v 1.524834 14.896617 0.312111
v 1.524834 10.813515 0.312111
v 1.385296 10.813515 0.312111
v 1.385296 10.813515 0.418317
v 1.385296 14.896617 0.418317
v 1.524834 14.896617 0.418317
v 1.524834 10.813515 0.418317
v -4.089423 8.245626 0.415118
v 4.206676 8.245626 0.415118
v 4.206676 8.402610 0.415118
v -4.089423 8.402610 0.415118
v -4.089423 8.402610 0.308912
v -4.089423 8.245626 0.308912
v 4.206676 8.245626 0.308912
v 4.206676 8.402610 0.308912
#end 56 vertices

#begin 168 normals
vn 0.000000 -0.000000 -1.000000
vn 0.000000 -0.000000 -1.000000
vn 0.000000 -0.000000 -1.000000
vn 0.000000 -0.000000 -1.000000
vn -0.000000 -1.000000 0.000000
vn -0.000000 -1.000000 0.000000
vn -0.000000 -1.000000 0.000000
vn -0.000000 -1.000000 0.000000
vn -1.000000 0.000000 -0.000000
vn -1.000000 0.000000 -0.000000
vn -1.000000 0.000000 -0.000000
vn -1.000000 0.000000 -0.000000
vn 1.000000 0.000000 0.000000
vn 1.000000 0.000000 0.000000
vn 1.000000 0.000000 0.000000
vn 1.000000 0.000000 0.000000
vn 0.000000 1.000000 0.000000
vn 0.000000 1.000000 0.000000
vn 0.000000 1.000000 0.000000
vn 0.000000 1.000000 0.000000
vn 0.000000 0.000000 1.000000
vn 0.000000 0.000000 1.000000
vn 0.000000 0.000000 1.000000
vn 0.000000 0.000000 1.000000
vn 0.000000 -0.000000 -1.000000
vn 0.000000 -0.000000 -1.000000
vn 0.000000 -0.000000 1.000000
vn 1.000000 0.000000 0.000000
vn -1.000000 0.000000 0.000000
vn 0.000000 -0.000000 1.000000
vn -1.000000 0.000000 0.000000
vn -1.000000 0.000000 0.000000
vn 0.000000 1.000000 0.000000
vn 0.000000 1.000000 0.000000
vn 0.000000 1.000000 0.000000
vn 0.000000 1.000000 0.000000
vn 1.000000 0.000000 0.000000
vn -0.000000 0.000000 -1.000000
vn -1.000000 -0.000000 0.000000
vn -0.000000 0.000000 -1.000000
vn 1.000000 0.000000 0.000000
vn 1.000000 0.000000 0.000000
vn 0.000000 -0.000000 1.000000
vn -1.000000 -0.000000 0.000000
vn -0.000000 0.000000 1.000000
vn 0.000000 -0.000000 1.000000
vn 1.000000 0.000000 0.000000
vn -0.000000 0.000000 1.000000
vn 0.000000 0.000000 -1.000000
vn 0.000000 0.000000 -1.000000
vn 0.000000 0.000000 -1.000000
vn 0.000000 0.000000 -1.000000
vn -0.000000 1.000000 0.000000
vn -0.000000 1.000000 0.000000
vn -0.000000 1.000000 0.000000
vn -0.000000 1.000000 0.000000
vn 1.000000 0.000000 0.000000
vn 1.000000 0.000000 0.000000
vn 1.000000 0.000000 0.000000
vn 1.000000 0.000000 0.000000
vn -1.000000 0.000000 0.000000
vn -1.000000 0.000000 0.000000
vn -1.000000 0.000000 0.000000
vn -1.000000 0.000000 0.000000
vn 0.000000 -1.000000 0.000000
vn 0.000000 -1.000000 0.000000
vn 0.000000 -1.000000 0.000000
vn 0.000000 -1.000000 0.000000
vn -0.000000 0.000000 1.000000
vn -0.000000 0.000000 1.000000
vn -0.000000 0.000000 1.000000
vn -0.000000 0.000000 1.000000
vn 0.000000 -1.000000 0.000000
vn 0.000000 -1.000000 0.000000
vn 0.000000 -1.000000 0.000000
vn 0.000000 -1.000000 0.000000
vn 0.000000 -1.000000 0.000000
vn 0.000000 -1.000000 0.000000
vn 0.000000 -1.000000 0.000000
vn 0.000000 -1.000000 0.000000
vn 0.000000 -1.000000 0.000000
vn 0.000000 -1.000000 0.000000
vn 0.000000 -1.000000 0.000000
vn 0.000000 -1.000000 0.000000
vn 1.000000 0.000000 0.000000
vn 0.000000 -0.000000 -1.000000
vn -1.000000 0.000000 0.000000
vn 0.000000 -0.000000 -1.000000
vn -0.000000 0.000000 1.000000
vn -1.000000 0.000000 0.000000
vn -0.000000 0.000000 1.000000
vn 1.000000 0.000000 0.000000
vn -1.000000 0.000000 0.000000
vn -0.000000 0.000000 -1.000000
vn 1.000000 0.000000 0.000000
vn -0.000000 0.000000 -1.000000
vn 0.000000 -0.000000 1.000000
vn 0.000000 -0.000000 1.000000
vn 1.000000 0.000000 0.000000
vn 1.000000 0.000000 0.000000
vn 0.000000 1.000000 0.000000
vn 0.000000 1.000000 0.000000
vn 0.000000 1.000000 0.000000
vn 0.000000 1.000000 0.000000
vn -1.000000 -0.000000 0.000000
vn -1.000000 -0.000000 0.000000
vn -0.000000 0.000000 -1.000000
vn -0.000000 0.000000 -1.000000
vn 0.000000 -0.000000 1.000000
vn 0.000000 -0.000000 1.000000
vn 1.000000 0.000000 0.000000
vn 1.000000 0.000000 0.000000
vn 0.000000 1.000000 0.000000
vn 0.000000 1.000000 0.000000
vn 0.000000 1.000000 0.000000
vn 0.000000 1.000000 0.000000
vn -1.000000 0.000000 0.000000
vn -1.000000 0.000000 0.000000
vn -0.000000 0.000000 -1.000000
vn -0.000000 0.000000 -1.000000
vn 0.000000 -0.000000 -1.000000
vn 0.000000 -0.000000 -1.000000
vn 0.000000 -0.000000 -1.000000
vn 0.000000 -0.000000 -1.000000
vn -1.000000 0.000000 0.000000
vn -1.000000 0.000000 0.000000
vn -1.000000 0.000000 0.000000
vn -1.000000 0.000000 0.000000
vn 0.000000 1.000000 0.000000
vn 0.000000 1.000000 0.000000
vn 0.000000 1.000000 0.000000
vn 0.000000 1.000000 0.000000
vn 1.000000 0.000000 0.000000
vn 1.000000 0.000000 0.000000
vn 1.000000 0.000000 0.000000
vn 1.000000 0.000000 0.000000
vn -0.000000 0.000000 1.000000
vn -0.000000 0.000000 1.000000
vn -0.000000 0.000000 1.000000
vn -0.000000 0.000000 1.000000
vn 0.000000 -1.000000 0.000000
vn 0.000000 -1.000000 0.000000
vn 0.000000 -1.000000 0.000000
vn 0.000000 -1.000000 0.000000
vn -0.000000 0.000000 1.000000
vn -0.000000 0.000000 1.000000
vn -0.000000 0.000000 1.000000
vn -0.000000 0.000000 1.000000
vn 0.000000 -1.000000 -0.000000
vn 0.000000 -1.000000 -0.000000
vn 0.000000 -1.000000 -0.000000
vn 0.000000 -1.000000 -0.000000
vn -1.000000 0.000000 0.000000
vn -1.000000 0.000000 0.000000
vn -1.000000 0.000000 0.000000
vn -1.000000 0.000000 0.000000
vn 1.000000 0.000000 0.000000
vn 1.000000 0.000000 0.000000
vn 1.000000 0.000000 0.000000
vn 1.000000 0.000000 0.000000
vn -0.000000 1.000000 0.000000
vn -0.000000 1.000000 0.000000
vn -0.000000 1.000000 0.000000
vn -0.000000 1.000000 0.000000
vn 0.000000 0.000000 -1.000000
vn 0.000000 0.000000 -1.000000
vn 0.000000 0.000000 -1.000000
vn 0.000000 0.000000 -1.000000
#end 168 vertex normals

#begin texture vertices
vt 0.992391 0.380339 0.000000
vt 0.007609 0.029241 0.000000
vt 0.029241 0.380339 0.000000
vt 0.985393 0.029241 0.000000
vt 0.014607 0.380339 0.000000
vt 0.970759 0.380339 0.000000
vt 0.992391 0.401318 0.000000
vt 0.029241 0.401318 0.000000
vt 0.007609 0.970759 0.000000
vt 0.970759 0.401318 0.000000
vt 0.014607 0.401318 0.000000
vt 0.985393 0.970759 0.000000
vt 1.000000 0.380339 0.000000
vt 0.007609 1.000000 0.000000
vt 0.007609 0.380339 0.000000
vt 0.985393 1.000000 0.000000
vt 0.000000 0.380339 0.000000
vt 0.985393 0.380339 0.000000
vt 0.007609 0.000000 0.000000
vt 1.000000 0.401318 0.000000
vt 0.007609 0.401318 0.000000
vt 0.000000 0.401318 0.000000
vt 0.985393 0.000000 0.000000
vt 0.985393 0.401318 0.000000
vt 0.670691 0.999944 0.000000
vt 0.029241 0.999944 0.000000
vt 0.329309 0.970759 0.000000
vt 0.029241 0.000000 0.000000
vt 0.016478 0.000000 0.000000
vt 0.983522 0.029241 0.000000
vt 0.654213 0.999944 0.000000
vt 0.345787 0.970759 0.000000
vt 0.970759 0.999944 0.000000
vt 0.000000 0.000000 0.000000
vt 0.970759 0.000000 0.000000
vt 1.000000 0.029241 0.000000
vt 0.329309 0.000000 0.000000
vt 1.000000 0.999944 0.000000
vt 0.329309 0.999944 0.000000
vt 0.000000 0.000000 0.000000
vt 1.000000 0.000000 0.000000
vt 1.000000 1.000000 0.000000
vt 0.000000 0.999944 0.000000
vt 0.345787 0.000000 0.000000
vt 0.345787 0.999944 0.000000
vt 0.983522 0.000000 0.000000
vt 1.000000 0.000000 0.000000
vt 0.983522 1.000000 0.000000
vt 0.000010 0.999987 0.000000
vt 0.999990 0.970759 0.000000
vt 0.970759 0.999987 0.000000
vt 0.000008 0.970759 0.000000
vt 0.999992 0.999987 0.000000
vt 0.029241 0.999987 0.000000
vt 0.000010 0.977245 0.000000
vt 0.970759 0.977245 0.000000
vt 0.999990 0.029241 0.000000
vt 0.029241 0.977245 0.000000
vt 0.999992 0.977245 0.000000
vt 0.000008 0.029241 0.000000
vt 0.000000 0.999987 0.000000
vt 0.999990 0.000000 0.000000
vt 0.999990 0.999987 0.000000
vt 0.000008 0.000000 0.000000
vt 1.000000 0.999987 0.000000
vt 0.000008 0.999987 0.000000
vt 0.999990 1.000000 0.000000
vt 0.000000 0.977245 0.000000
vt 0.999990 0.977245 0.000000
vt 1.000000 0.977245 0.000000
vt 0.000008 1.000000 0.000000
vt 0.000008 0.977245 0.000000
vt 0.983522 0.000012 0.000000
vt 0.970759 0.000012 0.000000
vt 0.016478 0.029241 0.000000
vt 0.029241 0.000012 0.000000
vt 1.000000 0.000012 0.000000
vt 0.000000 0.029241 0.000000
vt 0.000000 0.000012 0.000000
vt 1.000000 0.000012 0.000000
vt 0.000000 1.000000 0.000000
vt 0.000000 0.000012 0.000000
vt 0.016478 0.000012 0.000000
vt 0.016478 1.000000 0.000000
vt 0.654213 0.386070 0.000000
vt 0.970759 0.386070 0.000000
vt 0.345787 0.029241 0.000000
vt 0.029241 0.386070 0.000000
vt 0.670691 0.386070 0.000000
vt 0.329309 0.029241 0.000000
vt 0.329309 0.386070 0.000000
vt 1.000000 0.386070 0.000000
vt 0.329309 1.000000 0.000000
vt 0.000000 0.386070 0.000000
vt 0.345787 0.386070 0.000000
vt 0.345787 1.000000 0.000000
vt 0.000000 1.000000 0.000000
vt 0.016478 0.000000 0.000000
vt 0.016478 1.000000 0.000000
vt 0.000000 0.000000 0.000000
vt 1.000000 1.000000 0.000000
vt 0.000000 1.000000 0.000000
vt 0.983522 1.000000 0.000000
vt 0.016478 0.970759 0.000000
vt 0.970759 1.000000 0.000000
vt 1.000000 1.000000 0.000000
vt 0.029241 1.000000 0.000000
vt 0.000000 0.970759 0.000000
vt 0.000000 0.999993 0.000000
vt 1.000000 0.000000 0.000000
vt 1.000000 0.999993 0.000000
vt 0.983522 0.000000 0.000000
vt 1.000000 0.999993 0.000000
vt 0.983522 0.999993 0.000000
vt 0.000000 0.999993 0.000000
vt 1.000000 0.970759 0.000000
vt 0.970759 0.999993 0.000000
vt 0.016478 0.999993 0.000000
vt 0.029241 0.999993 0.000000
vt 0.983522 0.970759 0.000000
vt 0.344371 0.999944 0.000000
vt 0.029241 0.999944 0.000000
vt 0.655629 0.970759 0.000000
vt 0.327894 0.999944 0.000000
vt 0.672106 0.970759 0.000000
vt 0.970759 0.999944 0.000000
vt 0.327894 0.386070 0.000000
vt 0.970759 0.386070 0.000000
vt 0.672106 0.029241 0.000000
vt 0.029241 0.386070 0.000000
vt 0.344371 0.386070 0.000000
vt 0.655629 0.029241 0.000000
vt 0.655629 0.386070 0.000000
vt 1.000000 0.386070 0.000000
vt 0.655629 1.000000 0.000000
vt 0.655629 0.000000 0.000000
vt 1.000000 0.999944 0.000000
vt 0.655629 0.999944 0.000000
vt 0.000000 0.999944 0.000000
vt 0.672106 0.000000 0.000000
vt 0.672106 0.999944 0.000000
vt 0.000000 0.386070 0.000000
vt 0.672106 0.386070 0.000000
vt 0.672106 1.000000 0.000000
vt 0.970759 0.000000 0.000000
vt 0.009131 0.970759 0.000000
vt 0.009131 0.000000 0.000000
vt 0.988799 0.970759 0.000000
vt 0.029241 0.000000 0.000000
vt 0.988799 0.000000 0.000000
vt 0.029241 0.023602 0.000000
vt 0.988799 0.029241 0.000000
vt 0.988799 0.023602 0.000000
vt 0.009131 0.029241 0.000000
vt 0.970759 0.023602 0.000000
vt 0.009131 0.023602 0.000000
vt 0.009131 1.000000 0.000000
vt 0.990869 0.023602 0.000000
vt 0.000000 0.023602 0.000000
vt 0.000000 0.000000 0.000000
vt 0.990869 0.000000 0.000000
vt 0.009131 0.000000 0.000000
vt 0.011201 0.000000 0.000000
vt 1.000000 0.000000 0.000000
vt 0.988799 0.000000 0.000000
vt 0.011201 0.023602 0.000000
vt 0.988799 1.000000 0.000000
vt 1.000000 0.023602 0.000000
#end 168 texture vertices

#begin 42 faces
usemtl scene_material
f 1/1/1 3/7/2 4/11/3 2/5/4 
usemtl scene_material
f 1/2/5 2/4/6 6/16/7 5/14/8 
usemtl scene_material
f 1/3/9 5/13/10 7/20/11 3/8/12 
usemtl scene_material
f 2/6/13 4/10/14 8/22/15 6/17/16 
usemtl scene_material
f 3/9/17 7/19/18 8/23/19 4/12/20 
usemtl scene_material
f 5/15/21 6/18/22 8/24/23 7/21/24 
usemtl scene_material
f 9/25/25 11/31/26 29/85/86 30/89/88 
usemtl scene_material
f 9/26/29 30/88/87 31/92/90 13/38/32 
usemtl scene_material
f 9/27/33 13/37/34 15/44/35 11/32/36 
usemtl scene_material
f 34/102/98 27/79/43 28/83/46 33/99/97 
usemtl scene_material
f 11/33/41 15/43/42 32/94/92 29/86/85 
usemtl scene_material
f 13/39/45 31/91/89 32/95/91 15/45/48 
usemtl scene_material
f 17/49/49 19/55/50 20/59/51 18/53/52 
usemtl scene_material
f 17/50/53 18/52/54 22/64/55 21/62/56 
usemtl scene_material
f 17/51/57 21/61/58 23/68/59 19/56/60 
usemtl scene_material
f 18/54/61 20/58/62 24/70/63 22/65/64 
usemtl scene_material
f 19/57/65 23/67/66 24/71/67 20/60/68 
usemtl scene_material
f 21/63/69 22/66/70 24/72/71 23/69/72 
usemtl scene_material
f 28/84/76 27/81/75 26/78/74 25/75/73 
usemtl scene_material
f 32/96/80 31/93/79 30/90/78 29/87/77 
usemtl scene_material
f 14/42/84 16/48/83 10/30/82 12/36/81 
usemtl scene_material
f 35/105/100 33/97/99 28/82/47 25/74/37 
usemtl scene_material
f 36/108/104 34/100/103 33/98/102 35/104/101 
usemtl scene_material
f 36/107/106 26/76/39 27/80/44 34/101/105 
usemtl scene_material
f 36/106/108 35/103/107 25/73/38 26/77/40 
usemtl scene_material
f 38/114/110 16/46/30 14/41/27 37/111/109 
usemtl scene_material
f 39/117/112 37/109/111 14/40/28 12/35/95 
usemtl scene_material
f 40/120/116 38/112/115 37/110/114 39/116/113 
usemtl scene_material
f 40/119/118 10/28/93 16/47/31 38/113/117 
usemtl scene_material
f 40/118/120 39/115/119 12/34/96 10/29/94 
usemtl scene_material
f 41/121/121 42/124/122 43/127/123 44/131/124 
usemtl scene_material
f 41/122/125 44/130/126 45/134/127 46/137/128 
usemtl scene_material
f 41/123/129 46/136/130 47/140/131 42/125/132 
usemtl scene_material
f 42/126/133 47/139/134 48/142/135 43/128/136 
usemtl scene_material
f 46/138/137 45/133/138 48/143/139 47/141/140 
usemtl scene_material
f 48/144/141 45/135/142 44/132/143 43/129/144 
usemtl scene_material
f 51/153/148 52/156/147 49/147/146 50/150/145 
usemtl scene_material
f 55/165/152 50/148/151 49/146/150 54/162/149 
usemtl scene_material
f 53/159/156 54/160/155 49/145/154 52/155/153 
usemtl scene_material
f 56/168/160 51/151/159 50/149/158 55/164/157 
usemtl scene_material
f 56/167/164 53/157/163 52/154/162 51/152/161 
usemtl scene_material
f 56/166/168 55/163/167 54/161/166 53/158/165 
#end 42 faces
