# XSI Wavefront OBJ Export v3.0
# File Created: Fri Mar 24 01:59:06 2017
# XSI Version: 11.0.525.0
mtllib Normal_SH_Colonial.mtl

o SH_Colonial
# Hierarchy (from self to top father)
g SH_Colonial

#begin 80 vertices
v -4.101828 11.464180 0.321791
v 4.178312 11.464180 0.321791
v -4.101828 11.603718 0.321791
v 4.178312 11.603718 0.321791
v -4.101828 11.464180 0.410344
v 4.178312 11.464180 0.410344
v -4.101828 11.603718 0.410344
v 4.178312 11.603718 0.410344
v -0.031527 14.900246 0.321791
v -0.040043 1.166205 -0.494109
v 0.108011 14.900246 0.321791
v 0.099496 1.166205 -0.494109
v -0.031527 14.900246 0.410344
v -0.040043 1.166205 -0.405556
v 0.108011 14.900246 0.410344
v 0.099496 1.166205 -0.405556
v 4.301930 14.900532 0.321791
v -4.166191 14.900532 0.321791
v 4.301930 14.749268 0.321791
v -4.166191 14.749268 0.321791
v 4.301930 14.900532 0.410344
v -4.166191 14.900532 0.410344
v 4.301930 14.749268 0.410344
v -4.166191 14.749268 0.410344
v 4.207161 4.570482 -0.494109
v -4.088938 4.570482 -0.494109
v 4.207161 4.413498 -0.494109
v -4.088938 4.413498 -0.494109
v 4.207161 4.570482 -0.405556
v -4.088938 4.570482 -0.405556
v 4.207161 4.413498 -0.405556
v -4.088938 4.413498 -0.405556
v 4.294324 1.301619 -0.494109
v -4.174744 1.301619 -0.494109
v 4.294324 1.150355 -0.494109
v -4.174744 1.150355 -0.494109
v 4.294324 1.301619 -0.405556
v -4.174744 1.301619 -0.405556
v 4.294324 1.150355 -0.405556
v -4.174744 1.150355 -0.405556
v 4.162472 14.900569 0.321791
v 4.153957 1.166205 -0.494109
v 4.302010 14.900569 0.321791
v 4.293495 1.166205 -0.494109
v 4.162472 14.900569 0.410344
v 4.153957 1.166205 -0.405556
v 4.302010 14.900569 0.410344
v 4.293495 1.166205 -0.405556
v -4.166262 14.900618 0.321791
v -4.174777 1.166205 -0.494109
v -4.026723 14.900618 0.321791
v -4.035239 1.166205 -0.494109
v -4.166262 14.900618 0.410344
v -4.174777 1.166205 -0.405556
v -4.026723 14.900618 0.410344
v -4.035239 1.166205 -0.405556
v 0.108011 8.322147 0.410344
v -0.031527 8.322147 0.410344
v -0.031527 8.322147 0.321791
v 0.108011 8.322147 0.321791
v -4.026723 8.320097 0.410344
v -4.166262 8.320097 0.410344
v -4.166262 8.320097 0.321791
v -4.026723 8.320097 0.321791
v 4.162472 8.320097 0.410344
v 4.302010 8.320097 0.410344
v 4.302010 8.320097 0.321791
v 4.162472 8.320097 0.321791
v 0.099496 7.779458 -0.405556
v -0.040043 7.779458 -0.405556
v -0.040043 7.779458 -0.494109
v 0.099496 7.779458 -0.494109
v -4.035239 7.791773 -0.405556
v -4.174777 7.791773 -0.405556
v -4.174777 7.791773 -0.494109
v -4.035239 7.791773 -0.494109
v 4.153957 7.791773 -0.405556
v 4.293495 7.791773 -0.405556
v 4.293495 7.791773 -0.494109
v 4.153957 7.791773 -0.494109
#end 80 vertices

#begin 240 normals
vn 0.000000 -0.000000 -1.000000
vn 0.000000 -0.000000 -1.000000
vn 0.000000 -0.000000 -1.000000
vn 0.000000 -0.000000 -1.000000
vn -0.000000 -1.000000 0.000000
vn -0.000000 -1.000000 0.000000
vn -0.000000 -1.000000 0.000000
vn -0.000000 -1.000000 0.000000
vn -1.000000 0.000000 -0.000000
vn -1.000000 0.000000 -0.000000
vn -1.000000 0.000000 -0.000000
vn -1.000000 0.000000 -0.000000
vn 1.000000 0.000000 0.000000
vn 1.000000 0.000000 0.000000
vn 1.000000 0.000000 0.000000
vn 1.000000 0.000000 0.000000
vn 0.000000 1.000000 0.000000
vn 0.000000 1.000000 0.000000
vn 0.000000 1.000000 0.000000
vn 0.000000 1.000000 0.000000
vn 0.000000 0.000000 1.000000
vn 0.000000 0.000000 1.000000
vn 0.000000 0.000000 1.000000
vn 0.000000 0.000000 1.000000
vn 0.000000 -0.000000 -1.000000
vn 0.000000 -0.000000 -1.000000
vn -0.000000 0.000000 -1.000000
vn -0.000000 0.000000 -1.000000
vn -1.000000 0.000000 0.000000
vn -1.000000 -0.000000 0.000000
vn -1.000000 -0.000000 0.000000
vn -1.000000 0.000000 0.000000
vn 0.000000 1.000000 0.000000
vn 0.000000 1.000000 0.000000
vn 0.000000 1.000000 0.000000
vn 0.000000 1.000000 0.000000
vn -0.000000 -1.000000 0.000000
vn -0.000000 -1.000000 0.000000
vn -0.000000 -1.000000 0.000000
vn -0.000000 -1.000000 0.000000
vn 1.000000 0.000000 0.000000
vn 1.000000 0.000000 0.000000
vn 1.000000 0.000000 -0.000000
vn 1.000000 0.000000 -0.000000
vn -0.000000 0.000000 1.000000
vn -0.000000 -0.000000 1.000000
vn -0.000000 -0.000000 1.000000
vn -0.000000 0.000000 1.000000
vn 0.000000 0.000000 -1.000000
vn 0.000000 0.000000 -1.000000
vn 0.000000 0.000000 -1.000000
vn 0.000000 0.000000 -1.000000
vn -0.000000 1.000000 0.000000
vn -0.000000 1.000000 0.000000
vn -0.000000 1.000000 0.000000
vn -0.000000 1.000000 0.000000
vn 1.000000 0.000000 0.000000
vn 1.000000 0.000000 0.000000
vn 1.000000 0.000000 0.000000
vn 1.000000 0.000000 0.000000
vn -1.000000 0.000000 0.000000
vn -1.000000 0.000000 0.000000
vn -1.000000 0.000000 0.000000
vn -1.000000 0.000000 0.000000
vn 0.000000 -1.000000 0.000000
vn 0.000000 -1.000000 0.000000
vn 0.000000 -1.000000 0.000000
vn 0.000000 -1.000000 0.000000
vn -0.000000 0.000000 1.000000
vn -0.000000 0.000000 1.000000
vn -0.000000 0.000000 1.000000
vn -0.000000 0.000000 1.000000
vn 0.000000 0.000000 -1.000000
vn 0.000000 0.000000 -1.000000
vn 0.000000 0.000000 -1.000000
vn 0.000000 0.000000 -1.000000
vn -0.000000 1.000000 0.000000
vn -0.000000 1.000000 0.000000
vn -0.000000 1.000000 0.000000
vn -0.000000 1.000000 0.000000
vn 1.000000 0.000000 0.000000
vn 1.000000 0.000000 0.000000
vn 1.000000 0.000000 0.000000
vn 1.000000 0.000000 0.000000
vn -1.000000 0.000000 0.000000
vn -1.000000 0.000000 0.000000
vn -1.000000 0.000000 0.000000
vn -1.000000 0.000000 0.000000
vn 0.000000 -1.000000 0.000000
vn 0.000000 -1.000000 0.000000
vn 0.000000 -1.000000 0.000000
vn 0.000000 -1.000000 0.000000
vn -0.000000 0.000000 1.000000
vn -0.000000 0.000000 1.000000
vn -0.000000 0.000000 1.000000
vn -0.000000 0.000000 1.000000
vn 0.000000 0.000000 -1.000000
vn 0.000000 0.000000 -1.000000
vn 0.000000 0.000000 -1.000000
vn 0.000000 0.000000 -1.000000
vn -0.000000 1.000000 0.000000
vn -0.000000 1.000000 0.000000
vn -0.000000 1.000000 0.000000
vn -0.000000 1.000000 0.000000
vn 1.000000 0.000000 0.000000
vn 1.000000 0.000000 0.000000
vn 1.000000 0.000000 0.000000
vn 1.000000 0.000000 0.000000
vn -1.000000 0.000000 0.000000
vn -1.000000 0.000000 0.000000
vn -1.000000 0.000000 0.000000
vn -1.000000 0.000000 0.000000
vn 0.000000 -1.000000 0.000000
vn 0.000000 -1.000000 0.000000
vn 0.000000 -1.000000 0.000000
vn 0.000000 -1.000000 0.000000
vn -0.000000 0.000000 1.000000
vn -0.000000 0.000000 1.000000
vn -0.000000 0.000000 1.000000
vn -0.000000 0.000000 1.000000
vn -0.000000 0.000000 -1.000000
vn -0.000000 0.000000 -1.000000
vn 0.000000 0.000000 -1.000000
vn 0.000000 0.000000 -1.000000
vn -1.000000 -0.000000 0.000000
vn -1.000000 0.000000 -0.000000
vn -1.000000 0.000000 -0.000000
vn -1.000000 -0.000000 0.000000
vn 0.000000 1.000000 0.000000
vn 0.000000 1.000000 0.000000
vn 0.000000 1.000000 0.000000
vn 0.000000 1.000000 0.000000
vn -0.000000 -1.000000 0.000000
vn -0.000000 -1.000000 0.000000
vn -0.000000 -1.000000 0.000000
vn -0.000000 -1.000000 0.000000
vn 1.000000 0.000000 0.000000
vn 1.000000 0.000000 0.000000
vn 1.000000 0.000000 0.000000
vn 1.000000 0.000000 0.000000
vn 0.000000 -0.000000 1.000000
vn 0.000000 0.000000 1.000000
vn 0.000000 0.000000 1.000000
vn 0.000000 -0.000000 1.000000
vn -0.000000 0.000000 -1.000000
vn -0.000000 0.000000 -1.000000
vn 0.000000 0.000000 -1.000000
vn 0.000000 0.000000 -1.000000
vn -1.000000 -0.000000 0.000000
vn -1.000000 0.000000 -0.000000
vn -1.000000 0.000000 -0.000000
vn -1.000000 -0.000000 0.000000
vn 0.000000 1.000000 0.000000
vn 0.000000 1.000000 0.000000
vn 0.000000 1.000000 0.000000
vn 0.000000 1.000000 0.000000
vn -0.000000 -1.000000 0.000000
vn -0.000000 -1.000000 0.000000
vn -0.000000 -1.000000 0.000000
vn -0.000000 -1.000000 0.000000
vn 1.000000 0.000000 0.000000
vn 1.000000 0.000000 0.000000
vn 1.000000 0.000000 -0.000000
vn 1.000000 0.000000 -0.000000
vn 0.000000 -0.000000 1.000000
vn 0.000000 0.000000 1.000000
vn 0.000000 0.000000 1.000000
vn 0.000000 -0.000000 1.000000
vn 1.000000 0.000000 0.000000
vn -0.000000 0.000000 1.000000
vn -1.000000 0.000000 0.000000
vn -0.000000 0.000000 1.000000
vn 0.000000 -0.000000 -1.000000
vn -1.000000 0.000000 0.000000
vn 0.000000 -0.000000 -1.000000
vn 1.000000 0.000000 0.000000
vn -1.000000 0.000000 -0.000000
vn 0.000000 0.000000 -1.000000
vn 1.000000 0.000000 0.000000
vn 0.000000 0.000000 -1.000000
vn 0.000000 0.000000 1.000000
vn 1.000000 0.000000 0.000000
vn 0.000000 0.000000 1.000000
vn -1.000000 0.000000 -0.000000
vn 1.000000 0.000000 0.000000
vn 0.000000 -0.000000 1.000000
vn -1.000000 -0.000000 0.000000
vn 0.000000 -0.000000 1.000000
vn -0.000000 0.000000 -1.000000
vn -1.000000 -0.000000 0.000000
vn -0.000000 0.000000 -1.000000
vn 1.000000 0.000000 0.000000
vn 1.000000 0.000000 -0.000000
vn 0.000000 0.000000 -1.000000
vn -1.000000 0.000000 -0.000000
vn 0.000000 0.000000 -1.000000
vn 0.000000 0.000000 1.000000
vn -1.000000 0.000000 -0.000000
vn 0.000000 0.000000 1.000000
vn 1.000000 0.000000 -0.000000
vn -1.000000 -0.000000 0.000000
vn 0.000000 -0.000000 1.000000
vn 1.000000 0.000000 0.000000
vn 0.000000 -0.000000 1.000000
vn -0.000000 0.000000 -1.000000
vn 1.000000 0.000000 0.000000
vn -0.000000 0.000000 -1.000000
vn -1.000000 -0.000000 0.000000
vn 1.000000 0.000000 -0.000000
vn -0.000000 0.000000 -1.000000
vn -1.000000 -0.000000 0.000000
vn -0.000000 0.000000 -1.000000
vn -0.000000 -0.000000 1.000000
vn -1.000000 -0.000000 0.000000
vn -0.000000 -0.000000 1.000000
vn 1.000000 0.000000 -0.000000
vn 0.000000 -1.000000 0.000000
vn 0.000000 -1.000000 0.000000
vn 0.000000 -1.000000 0.000000
vn 0.000000 -1.000000 0.000000
vn 0.000000 -1.000000 0.000000
vn 0.000000 -1.000000 0.000000
vn 0.000000 -1.000000 0.000000
vn 0.000000 -1.000000 0.000000
vn 0.000000 -1.000000 0.000000
vn 0.000000 -1.000000 0.000000
vn 0.000000 -1.000000 0.000000
vn 0.000000 -1.000000 0.000000
vn 0.000000 1.000000 0.000000
vn 0.000000 1.000000 0.000000
vn 0.000000 1.000000 0.000000
vn 0.000000 1.000000 0.000000
vn 0.000000 1.000000 0.000000
vn 0.000000 1.000000 0.000000
vn 0.000000 1.000000 0.000000
vn 0.000000 1.000000 0.000000
vn 0.000000 1.000000 0.000000
vn 0.000000 1.000000 0.000000
vn 0.000000 1.000000 0.000000
vn 0.000000 1.000000 0.000000
#end 240 vertex normals

#begin texture vertices
vt 0.991394 0.750082 0.000000
vt 0.008606 0.902092 0.000000
vt 0.902092 0.750082 0.000000
vt 0.985407 0.902092 0.000000
vt 0.014593 0.750082 0.000000
vt 0.097908 0.750082 0.000000
vt 0.991394 0.760230 0.000000
vt 0.902092 0.760230 0.000000
vt 0.008606 0.097908 0.000000
vt 0.097908 0.760230 0.000000
vt 0.014593 0.760230 0.000000
vt 0.985407 0.097908 0.000000
vt 1.000000 0.750082 0.000000
vt 0.008606 1.000000 0.000000
vt 0.008606 0.750082 0.000000
vt 0.985407 1.000000 0.000000
vt 0.000000 0.750082 0.000000
vt 0.985407 0.750082 0.000000
vt 0.008606 0.000000 0.000000
vt 1.000000 0.760230 0.000000
vt 0.008606 0.760230 0.000000
vt 0.000000 0.760230 0.000000
vt 0.985407 0.000000 0.000000
vt 0.985407 0.760230 0.000000
vt 0.511224 0.999973 0.000000
vt 0.902092 0.999973 0.000000
vt 0.488776 0.097908 0.000000
vt 0.000000 0.001153 0.000000
vt 0.512229 0.001153 0.000000
vt 0.487771 0.000000 0.000000
vt 0.494763 0.999973 0.000000
vt 0.505237 0.097908 0.000000
vt 0.097908 0.999973 0.000000
vt 0.504233 0.000000 0.000000
vt 0.495767 0.001153 0.000000
vt 1.000000 0.001153 0.000000
vt 0.488776 0.000000 0.000000
vt 1.000000 0.999973 0.000000
vt 0.488776 0.999973 0.000000
vt 0.097908 0.001153 0.000000
vt 0.487771 0.097908 0.000000
vt 0.487771 0.001153 0.000000
vt 0.000000 0.999973 0.000000
vt 0.505237 0.000000 0.000000
vt 0.505237 0.999973 0.000000
vt 0.504233 0.097908 0.000000
vt 0.902092 0.001153 0.000000
vt 0.504233 0.001153 0.000000
vt 0.000009 0.999994 0.000000
vt 0.999991 0.097908 0.000000
vt 0.097908 0.999994 0.000000
vt 0.001013 0.097908 0.000000
vt 0.998987 0.999994 0.000000
vt 0.902092 0.999994 0.000000
vt 0.000009 0.988993 0.000000
vt 0.097908 0.988993 0.000000
vt 0.999991 0.902092 0.000000
vt 0.902092 0.988993 0.000000
vt 0.998987 0.988993 0.000000
vt 0.001013 0.902092 0.000000
vt 0.000000 0.999994 0.000000
vt 0.999991 0.000000 0.000000
vt 0.999991 0.999994 0.000000
vt 0.001013 0.000000 0.000000
vt 1.000000 0.999994 0.000000
vt 0.001013 0.999994 0.000000
vt 0.999991 1.000000 0.000000
vt 0.000000 0.988993 0.000000
vt 0.999991 0.988993 0.000000
vt 1.000000 0.988993 0.000000
vt 0.001013 1.000000 0.000000
vt 0.001013 0.988993 0.000000
vt 0.011189 0.248732 0.000000
vt 0.988811 1.000000 0.000000
vt 1.000000 0.248732 0.000000
vt 0.010126 1.000000 0.000000
vt 0.989874 0.248732 0.000000
vt 0.000000 0.248732 0.000000
vt 0.011189 0.237315 0.000000
vt 1.000000 0.237315 0.000000
vt 0.988811 0.000000 0.000000
vt 0.000000 0.237315 0.000000
vt 0.989874 0.237315 0.000000
vt 0.010126 0.000000 0.000000
vt 0.902092 0.248732 0.000000
vt 0.988811 0.902092 0.000000
vt 0.988811 0.248732 0.000000
vt 0.010126 0.902092 0.000000
vt 0.097908 0.248732 0.000000
vt 0.010126 0.248732 0.000000
vt 0.988811 0.097908 0.000000
vt 0.902092 0.237315 0.000000
vt 0.988811 0.237315 0.000000
vt 0.097908 0.237315 0.000000
vt 0.010126 0.097908 0.000000
vt 0.010126 0.237315 0.000000
vt 0.000907 0.011001 0.000000
vt 0.999093 1.000000 0.000000
vt 1.000000 0.011001 0.000000
vt 0.000004 1.000000 0.000000
vt 0.999996 0.011001 0.000000
vt 0.000000 0.011001 0.000000
vt 0.000907 0.000000 0.000000
vt 1.000000 0.000000 0.000000
vt 0.999093 0.000000 0.000000
vt 0.000000 0.000000 0.000000
vt 0.999996 0.000000 0.000000
vt 0.000004 0.000000 0.000000
vt 0.902092 0.011001 0.000000
vt 0.999093 0.902092 0.000000
vt 0.999093 0.011001 0.000000
vt 0.000004 0.902092 0.000000
vt 0.097908 0.011001 0.000000
vt 0.000004 0.011001 0.000000
vt 0.999093 0.097908 0.000000
vt 0.902092 0.000000 0.000000
vt 0.999093 0.000000 0.000000
vt 0.097908 0.000000 0.000000
vt 0.000004 0.097908 0.000000
vt 0.000004 0.000000 0.000000
vt 0.016461 0.999996 0.000000
vt 0.902092 0.999996 0.000000
vt 0.983539 0.097908 0.000000
vt 0.000000 0.001153 0.000000
vt 0.017466 0.001153 0.000000
vt 0.982534 0.000000 0.000000
vt 0.000000 0.999996 0.000000
vt 1.000000 0.097908 0.000000
vt 0.097908 0.999996 0.000000
vt 0.998995 0.000000 0.000000
vt 0.001005 0.001153 0.000000
vt 1.000000 0.001153 0.000000
vt 0.983539 0.000000 0.000000
vt 1.000000 0.999996 0.000000
vt 0.983539 0.999996 0.000000
vt 0.097908 0.001153 0.000000
vt 0.982534 0.097908 0.000000
vt 0.982534 0.001153 0.000000
vt 0.000000 0.999996 0.000000
vt 1.000000 0.000000 0.000000
vt 1.000000 0.999996 0.000000
vt 0.998995 0.097908 0.000000
vt 0.902092 0.001153 0.000000
vt 0.998995 0.001153 0.000000
vt 0.998995 1.000000 0.000000
vt 0.902092 1.000000 0.000000
vt 0.001005 0.097908 0.000000
vt 0.000000 0.001153 0.000000
vt 1.000000 0.001153 0.000000
vt 0.000000 0.000000 0.000000
vt 0.982534 1.000000 0.000000
vt 0.017466 0.097908 0.000000
vt 0.097908 1.000000 0.000000
vt 0.016461 0.000000 0.000000
vt 0.983539 0.001153 0.000000
vt 1.000000 0.001153 0.000000
vt 0.001005 0.000000 0.000000
vt 1.000000 1.000000 0.000000
vt 0.001005 1.000000 0.000000
vt 0.097908 0.001153 0.000000
vt 0.000000 0.097908 0.000000
vt 0.000000 0.001153 0.000000
vt 0.000000 1.000000 0.000000
vt 0.017466 0.000000 0.000000
vt 0.017466 1.000000 0.000000
vt 0.016461 0.097908 0.000000
vt 0.902092 0.001153 0.000000
vt 0.016461 0.001153 0.000000
vt 0.000000 0.521575 0.000000
vt 0.505237 0.521575 0.000000
vt 0.505237 1.000000 0.000000
vt 0.488776 0.521575 0.000000
vt 1.000000 0.521575 0.000000
vt 0.488776 1.000000 0.000000
vt 0.902092 0.521575 0.000000
vt 0.511224 0.521575 0.000000
vt 0.488776 0.902092 0.000000
vt 0.494763 0.521575 0.000000
vt 0.097908 0.521575 0.000000
vt 0.505237 0.902092 0.000000
vt 0.000000 0.521426 0.000000
vt 0.017466 0.521426 0.000000
vt 0.017466 1.000000 0.000000
vt 0.001005 0.521426 0.000000
vt 1.000000 0.521426 0.000000
vt 0.001005 1.000000 0.000000
vt 0.902092 0.521426 0.000000
vt 0.998995 0.521426 0.000000
vt 0.001005 0.902092 0.000000
vt 0.982534 0.521426 0.000000
vt 0.097908 0.521426 0.000000
vt 0.017466 0.902092 0.000000
vt 0.983539 0.521426 0.000000
vt 1.000000 0.521426 0.000000
vt 0.983539 1.000000 0.000000
vt 0.000000 0.521426 0.000000
vt 1.000000 0.521426 0.000000
vt 1.000000 1.000000 0.000000
vt 0.000000 0.521426 0.000000
vt 0.097908 0.521426 0.000000
vt 1.000000 0.902092 0.000000
vt 0.902092 0.521426 0.000000
vt 0.016461 0.521426 0.000000
vt 0.983539 0.902092 0.000000
vt 0.504233 0.482107 0.000000
vt 0.902092 0.482107 0.000000
vt 0.504233 0.902092 0.000000
vt 0.097908 0.482107 0.000000
vt 0.487771 0.482107 0.000000
vt 0.487771 0.902092 0.000000
vt 0.512229 0.482107 0.000000
vt 0.000000 0.482107 0.000000
vt 0.487771 1.000000 0.000000
vt 1.000000 0.482107 0.000000
vt 0.495767 0.482107 0.000000
vt 0.504233 1.000000 0.000000
vt 0.016461 0.483003 0.000000
vt 0.902092 0.483003 0.000000
vt 0.016461 0.902092 0.000000
vt 0.097908 0.483003 0.000000
vt 0.000000 0.483003 0.000000
vt 0.000000 0.902092 0.000000
vt 1.000000 0.483003 0.000000
vt 0.000000 0.483003 0.000000
vt 0.000000 1.000000 0.000000
vt 1.000000 0.483003 0.000000
vt 0.983539 0.483003 0.000000
vt 0.016461 1.000000 0.000000
vt 0.097908 0.483003 0.000000
vt 0.982534 0.483003 0.000000
vt 0.982534 0.902092 0.000000
vt 0.998995 0.483003 0.000000
vt 0.902092 0.483003 0.000000
vt 0.998995 0.902092 0.000000
vt 1.000000 0.483003 0.000000
vt 0.001005 0.483003 0.000000
vt 0.998995 1.000000 0.000000
vt 0.017466 0.483003 0.000000
vt 0.000000 0.483003 0.000000
vt 0.982534 1.000000 0.000000
#end 240 texture vertices

#begin 60 faces
usemtl scene_material
f 1/1/1 3/7/2 4/11/3 2/5/4 
usemtl scene_material
f 1/2/5 2/4/6 6/16/7 5/14/8 
usemtl scene_material
f 1/3/9 5/13/10 7/20/11 3/8/12 
usemtl scene_material
f 2/6/13 4/10/14 8/22/15 6/17/16 
usemtl scene_material
f 3/9/17 7/19/18 8/23/19 4/12/20 
usemtl scene_material
f 5/15/21 6/18/22 8/24/23 7/21/24 
usemtl scene_material
f 9/25/25 11/31/26 60/178/175 59/176/173 
usemtl scene_material
f 9/26/29 59/175/174 58/173/171 13/38/32 
usemtl scene_material
f 9/27/33 13/37/34 15/44/35 11/32/36 
usemtl scene_material
f 10/30/37 12/34/38 16/46/39 14/41/40 
usemtl scene_material
f 11/33/41 15/43/42 57/169/169 60/179/176 
usemtl scene_material
f 13/39/45 58/172/172 57/170/170 15/45/48 
usemtl scene_material
f 17/49/49 19/55/50 20/59/51 18/53/52 
usemtl scene_material
f 17/50/53 18/52/54 22/64/55 21/62/56 
usemtl scene_material
f 17/51/57 21/61/58 23/68/59 19/56/60 
usemtl scene_material
f 18/54/61 20/58/62 24/70/63 22/65/64 
usemtl scene_material
f 19/57/65 23/67/66 24/71/67 20/60/68 
usemtl scene_material
f 21/63/69 22/66/70 24/72/71 23/69/72 
usemtl scene_material
f 25/73/73 27/79/74 28/83/75 26/77/76 
usemtl scene_material
f 25/74/77 26/76/78 30/88/79 29/86/80 
usemtl scene_material
f 25/75/81 29/85/82 31/92/83 27/80/84 
usemtl scene_material
f 26/78/85 28/82/86 32/94/87 30/89/88 
usemtl scene_material
f 27/81/89 31/91/90 32/95/91 28/84/92 
usemtl scene_material
f 29/87/93 30/90/94 32/96/95 31/93/96 
usemtl scene_material
f 33/97/97 35/103/98 36/107/99 34/101/100 
usemtl scene_material
f 33/98/101 34/100/102 38/112/103 37/110/104 
usemtl scene_material
f 33/99/105 37/109/106 39/116/107 35/104/108 
usemtl scene_material
f 34/102/109 36/106/110 40/118/111 38/113/112 
usemtl scene_material
f 35/105/113 39/115/114 40/119/115 36/108/116 
usemtl scene_material
f 37/111/117 38/114/118 40/120/119 39/117/120 
usemtl scene_material
f 41/121/121 43/127/122 67/199/205 68/203/207 
usemtl scene_material
f 41/122/125 68/202/208 65/194/201 45/134/128 
usemtl scene_material
f 41/123/129 45/133/130 47/140/131 43/128/132 
usemtl scene_material
f 42/126/133 44/130/134 48/142/135 46/137/136 
usemtl scene_material
f 43/129/137 47/139/138 66/196/203 67/200/206 
usemtl scene_material
f 45/135/141 65/193/202 66/197/204 47/141/144 
usemtl scene_material
f 49/145/145 51/151/146 64/190/191 63/188/189 
usemtl scene_material
f 49/146/149 63/187/190 62/185/187 53/158/152 
usemtl scene_material
f 49/147/153 53/157/154 55/164/155 51/152/156 
usemtl scene_material
f 50/150/157 52/154/158 56/166/159 54/161/160 
usemtl scene_material
f 51/153/161 55/163/162 61/181/185 64/191/192 
usemtl scene_material
f 53/159/165 62/184/188 61/182/186 55/165/168 
usemtl scene_material
f 12/35/27 10/29/28 71/211/212 72/215/210 
usemtl scene_material
f 10/28/30 14/40/31 70/208/214 71/212/211 
usemtl scene_material
f 16/47/43 12/36/44 72/214/209 69/206/216 
usemtl scene_material
f 14/42/46 16/48/47 69/205/215 70/209/213 
usemtl scene_material
f 52/155/147 50/149/148 75/223/196 76/227/194 
usemtl scene_material
f 50/148/150 54/160/151 74/220/198 75/224/195 
usemtl scene_material
f 56/167/163 52/156/164 76/226/193 73/218/200 
usemtl scene_material
f 54/162/166 56/168/167 73/217/199 74/221/197 
usemtl scene_material
f 44/131/123 42/125/124 80/238/178 79/236/180 
usemtl scene_material
f 42/124/126 46/136/127 77/229/184 80/239/177 
usemtl scene_material
f 48/143/139 44/132/140 79/235/179 78/233/182 
usemtl scene_material
f 46/138/142 48/144/143 78/232/181 77/230/183 
usemtl scene_material
f 66/198/217 65/195/218 68/204/219 67/201/220 
usemtl scene_material
f 57/171/221 58/174/222 59/177/223 60/180/224 
usemtl scene_material
f 61/183/225 62/186/226 63/189/227 64/192/228 
usemtl scene_material
f 74/222/229 73/219/230 76/228/231 75/225/232 
usemtl scene_material
f 70/210/233 69/207/234 72/216/235 71/213/236 
usemtl scene_material
f 77/231/237 78/234/238 79/237/239 80/240/240 
#end 60 faces
