# XSI Wavefront OBJ Export v3.0
# File Created: Fri Mar 24 01:59:06 2017
# XSI Version: 11.0.525.0
mtllib Normal_Half_Colonial.mtl

o Half_Colonial
# Hierarchy (from self to top father)
g Half_Colonial

#begin 48 vertices
v -4.095878 11.433573 -0.069629
v 4.184263 11.433573 -0.069629
v -4.095878 11.573111 -0.069629
v 4.184263 11.573111 -0.069629
v -4.095878 11.433573 0.034086
v 4.184263 11.433573 0.034086
v -4.095878 11.573111 0.034086
v 4.184263 11.573111 0.034086
v -0.016910 14.927077 -0.069629
v -0.016910 8.049082 -0.069629
v 0.122628 14.927077 -0.069629
v 0.122628 8.049082 -0.069629
v -0.016910 14.927077 0.034086
v -0.016910 8.049082 0.034086
v 0.122628 14.927077 0.034086
v 0.122628 8.049082 0.034086
v 4.307880 14.927363 -0.069629
v -4.160240 14.927363 -0.069629
v 4.307880 14.776099 -0.069629
v -4.160240 14.776099 -0.069629
v 4.307880 14.927363 0.034086
v -4.160240 14.927363 0.034086
v 4.307880 14.776099 0.034086
v -4.160240 14.776099 0.034086
v 4.309871 8.165269 -0.069629
v -4.160332 8.165269 -0.069629
v 4.309871 8.008285 -0.069629
v -4.160332 8.008285 -0.069629
v 4.309871 8.165269 0.034086
v -4.160332 8.165269 0.034086
v 4.309871 8.008285 0.034086
v -4.160332 8.008285 0.034086
v -4.020773 8.085620 0.034086
v -4.020773 14.927449 0.034086
v -4.160311 8.085620 0.034086
v -4.160311 14.927449 0.034086
v -4.020773 8.085620 -0.069629
v -4.020773 14.927449 -0.069629
v -4.160311 8.085620 -0.069629
v -4.160311 14.927449 -0.069629
v 4.168423 14.927400 -0.069629
v 4.168423 8.085620 -0.069629
v 4.307961 14.927400 -0.069629
v 4.307961 8.085620 -0.069629
v 4.168423 14.927400 0.034086
v 4.168423 8.085620 0.034086
v 4.307961 14.927400 0.034086
v 4.307961 8.085620 0.034086
#end 48 vertices

#begin 136 normals
vn 0.000000 -0.000000 -1.000000
vn 0.000000 -0.000000 -1.000000
vn 0.000000 -0.000000 -1.000000
vn 0.000000 -0.000000 -1.000000
vn -0.000000 -1.000000 0.000000
vn -0.000000 -1.000000 0.000000
vn -0.000000 -1.000000 0.000000
vn -0.000000 -1.000000 0.000000
vn -1.000000 0.000000 -0.000000
vn -1.000000 0.000000 -0.000000
vn -1.000000 0.000000 -0.000000
vn -1.000000 0.000000 -0.000000
vn 1.000000 0.000000 0.000000
vn 1.000000 0.000000 0.000000
vn 1.000000 0.000000 0.000000
vn 1.000000 0.000000 0.000000
vn 0.000000 1.000000 0.000000
vn 0.000000 1.000000 0.000000
vn 0.000000 1.000000 0.000000
vn 0.000000 1.000000 0.000000
vn 0.000000 0.000000 1.000000
vn 0.000000 0.000000 1.000000
vn 0.000000 0.000000 1.000000
vn 0.000000 0.000000 1.000000
vn -0.000000 0.000000 -1.000000
vn -0.000000 0.000000 -1.000000
vn -0.000000 0.000000 -1.000000
vn -0.000000 0.000000 -1.000000
vn -1.000000 -0.000000 0.000000
vn -1.000000 -0.000000 0.000000
vn -1.000000 -0.000000 0.000000
vn -1.000000 -0.000000 0.000000
vn 0.000000 1.000000 0.000000
vn 0.000000 1.000000 0.000000
vn 0.000000 1.000000 0.000000
vn 0.000000 1.000000 0.000000
vn -0.000000 -1.000000 0.000000
vn -0.000000 -1.000000 0.000000
vn -0.000000 -1.000000 0.000000
vn -0.000000 -1.000000 0.000000
vn 1.000000 0.000000 0.000000
vn 1.000000 0.000000 0.000000
vn 1.000000 0.000000 0.000000
vn 1.000000 0.000000 0.000000
vn 0.000000 -0.000000 1.000000
vn 0.000000 -0.000000 1.000000
vn 0.000000 -0.000000 1.000000
vn 0.000000 -0.000000 1.000000
vn 0.000000 0.000000 -1.000000
vn 0.000000 0.000000 -1.000000
vn 0.000000 0.000000 -1.000000
vn 0.000000 0.000000 -1.000000
vn -0.000000 1.000000 0.000000
vn -0.000000 1.000000 0.000000
vn -0.000000 1.000000 0.000000
vn -0.000000 1.000000 0.000000
vn 1.000000 0.000000 0.000000
vn 1.000000 0.000000 0.000000
vn 1.000000 0.000000 0.000000
vn 1.000000 0.000000 0.000000
vn -1.000000 0.000000 0.000000
vn -1.000000 0.000000 0.000000
vn -1.000000 0.000000 0.000000
vn -1.000000 0.000000 0.000000
vn 0.000000 -1.000000 0.000000
vn 0.000000 -1.000000 0.000000
vn 0.000000 -1.000000 0.000000
vn 0.000000 -1.000000 0.000000
vn -0.000000 0.000000 1.000000
vn -0.000000 0.000000 1.000000
vn -0.000000 0.000000 1.000000
vn -0.000000 0.000000 1.000000
vn 0.000000 0.000000 -1.000000
vn 0.000000 0.000000 -1.000000
vn 0.000000 0.000000 -1.000000
vn 0.000000 0.000000 -1.000000
vn -0.000000 1.000000 0.000000
vn -0.000000 1.000000 0.000000
vn -0.000000 1.000000 0.000000
vn -0.000000 1.000000 0.000000
vn 1.000000 0.000000 0.000000
vn 1.000000 0.000000 0.000000
vn 1.000000 0.000000 0.000000
vn 1.000000 0.000000 0.000000
vn -1.000000 0.000000 0.000000
vn -1.000000 0.000000 0.000000
vn -1.000000 0.000000 0.000000
vn -1.000000 0.000000 0.000000
vn 0.000000 -1.000000 0.000000
vn 0.000000 -1.000000 0.000000
vn 0.000000 -1.000000 0.000000
vn 0.000000 -1.000000 0.000000
vn -0.000000 0.000000 1.000000
vn -0.000000 0.000000 1.000000
vn -0.000000 0.000000 1.000000
vn -0.000000 0.000000 1.000000
vn 0.000000 -0.000000 1.000000
vn 0.000000 -0.000000 1.000000
vn 0.000000 -0.000000 1.000000
vn 0.000000 -0.000000 1.000000
vn 1.000000 0.000000 0.000000
vn 1.000000 0.000000 0.000000
vn 1.000000 0.000000 0.000000
vn 1.000000 0.000000 0.000000
vn 0.000000 1.000000 0.000000
vn 0.000000 1.000000 0.000000
vn 0.000000 1.000000 0.000000
vn 0.000000 1.000000 0.000000
vn -1.000000 -0.000000 0.000000
vn -1.000000 -0.000000 0.000000
vn -1.000000 -0.000000 0.000000
vn -1.000000 -0.000000 0.000000
vn -0.000000 0.000000 -1.000000
vn -0.000000 0.000000 -1.000000
vn -0.000000 0.000000 -1.000000
vn -0.000000 0.000000 -1.000000
vn 0.000000 -0.000000 1.000000
vn 0.000000 -0.000000 1.000000
vn 0.000000 -0.000000 1.000000
vn 0.000000 -0.000000 1.000000
vn -0.000000 0.000000 -1.000000
vn -0.000000 0.000000 -1.000000
vn -0.000000 0.000000 -1.000000
vn -0.000000 0.000000 -1.000000
vn -1.000000 -0.000000 0.000000
vn -1.000000 -0.000000 0.000000
vn -1.000000 -0.000000 0.000000
vn -1.000000 -0.000000 0.000000
vn 0.000000 1.000000 0.000000
vn 0.000000 1.000000 0.000000
vn 0.000000 1.000000 0.000000
vn 0.000000 1.000000 0.000000
vn 1.000000 0.000000 0.000000
vn 1.000000 0.000000 0.000000
vn 1.000000 0.000000 0.000000
vn 1.000000 0.000000 0.000000
#end 136 vertex normals

#begin texture vertices
vt 0.992391 0.495044 0.000000
vt 0.007609 0.000000 0.000000
vt 0.000000 0.495044 0.000000
vt 0.985171 0.000000 0.000000
vt 0.014829 0.495044 0.000000
vt 1.000000 0.495044 0.000000
vt 0.992391 0.515210 0.000000
vt 0.000000 0.515210 0.000000
vt 0.007609 1.000000 0.000000
vt 1.000000 0.515210 0.000000
vt 0.014829 0.515210 0.000000
vt 0.985171 1.000000 0.000000
vt 1.000000 0.495044 0.000000
vt 0.007609 1.000000 0.000000
vt 0.007609 0.495044 0.000000
vt 0.985171 1.000000 0.000000
vt 0.000000 0.495044 0.000000
vt 0.985171 0.495044 0.000000
vt 0.007609 0.000000 0.000000
vt 1.000000 0.515210 0.000000
vt 0.007609 0.515210 0.000000
vt 0.000000 0.515210 0.000000
vt 0.985171 0.000000 0.000000
vt 0.985171 0.515210 0.000000
vt 0.510824 0.999946 0.000000
vt 0.000000 0.999946 0.000000
vt 0.489176 1.000000 0.000000
vt 0.000000 0.005896 0.000000
vt 0.510824 0.005896 0.000000
vt 0.489176 0.000000 0.000000
vt 0.494350 0.999946 0.000000
vt 0.505650 1.000000 0.000000
vt 1.000000 0.999946 0.000000
vt 0.505650 0.000000 0.000000
vt 0.494350 0.005896 0.000000
vt 1.000000 0.005896 0.000000
vt 0.489176 0.000000 0.000000
vt 1.000000 0.999946 0.000000
vt 0.489176 0.999946 0.000000
vt 1.000000 0.005896 0.000000
vt 0.489176 1.000000 0.000000
vt 0.489176 0.005896 0.000000
vt 0.000000 0.999946 0.000000
vt 0.505650 0.000000 0.000000
vt 0.505650 0.999946 0.000000
vt 0.505650 1.000000 0.000000
vt 0.000000 0.005896 0.000000
vt 0.505650 0.005896 0.000000
vt 0.000235 0.999987 0.000000
vt 0.999765 1.000000 0.000000
vt 1.000000 0.999987 0.000000
vt 0.000011 1.000000 0.000000
vt 0.999989 0.999987 0.000000
vt 0.000000 0.999987 0.000000
vt 0.000235 0.978126 0.000000
vt 1.000000 0.978126 0.000000
vt 0.999765 0.000000 0.000000
vt 0.000000 0.978126 0.000000
vt 0.999989 0.978126 0.000000
vt 0.000011 0.000000 0.000000
vt 0.000000 0.999987 0.000000
vt 0.999765 0.000000 0.000000
vt 0.999765 0.999987 0.000000
vt 0.000011 0.000000 0.000000
vt 1.000000 0.999987 0.000000
vt 0.000011 0.999987 0.000000
vt 0.999765 1.000000 0.000000
vt 0.000000 0.978126 0.000000
vt 0.999765 0.978126 0.000000
vt 1.000000 0.978126 0.000000
vt 0.000011 1.000000 0.000000
vt 0.000011 0.978126 0.000000
vt 0.000000 0.022688 0.000000
vt 1.000000 1.000000 0.000000
vt 1.000000 0.022688 0.000000
vt 0.000000 1.000000 0.000000
vt 1.000000 0.022688 0.000000
vt 0.000000 0.022688 0.000000
vt 0.000000 0.000000 0.000000
vt 1.000000 0.000000 0.000000
vt 0.000000 0.000000 0.000000
vt 1.000000 0.000000 0.000000
vt 0.000000 0.022688 0.000000
vt 1.000000 0.000000 0.000000
vt 1.000000 0.022688 0.000000
vt 0.000000 0.000000 0.000000
vt 1.000000 0.022688 0.000000
vt 0.000000 0.022688 0.000000
vt 1.000000 1.000000 0.000000
vt 0.000000 0.000000 0.000000
vt 1.000000 0.000000 0.000000
vt 1.000000 0.000000 0.000000
vt 0.000000 1.000000 0.000000
vt 0.000000 0.000000 0.000000
vt 0.000000 0.011177 0.000000
vt 0.016476 0.011177 0.000000
vt 0.000000 1.000000 0.000000
vt 0.016476 0.000000 0.000000
vt 0.016476 1.000000 0.000000
vt 0.000002 0.011177 0.000000
vt 1.000000 0.011177 0.000000
vt 0.000002 0.000000 0.000000
vt 1.000000 1.000000 0.000000
vt 0.000002 1.000000 0.000000
vt 0.983523 0.011177 0.000000
vt 1.000000 0.011177 0.000000
vt 0.983523 1.000000 0.000000
vt 0.016476 1.000000 0.000000
vt 1.000000 1.000000 0.000000
vt 0.000000 0.011177 0.000000
vt 0.999998 0.011177 0.000000
vt 0.999998 1.000000 0.000000
vt 0.000000 1.000000 0.000000
vt 0.000002 1.000000 0.000000
vt 0.016700 0.999993 0.000000
vt 0.000000 0.999993 0.000000
vt 0.983300 1.000000 0.000000
vt 0.000000 0.011177 0.000000
vt 0.016700 0.011177 0.000000
vt 0.000226 0.999993 0.000000
vt 0.999774 1.000000 0.000000
vt 1.000000 0.999993 0.000000
vt 0.000226 0.011177 0.000000
vt 1.000000 0.011177 0.000000
vt 0.983300 0.000000 0.000000
vt 1.000000 0.999993 0.000000
vt 0.983300 0.999993 0.000000
vt 0.983300 0.011177 0.000000
vt 1.000000 0.011177 0.000000
vt 0.000000 0.999993 0.000000
vt 0.999774 0.000000 0.000000
vt 0.999774 0.999993 0.000000
vt 0.000000 0.011177 0.000000
vt 0.999774 0.011177 0.000000
#end 134 texture vertices

#begin 34 faces
usemtl scene_material
f 1/1/1 3/7/2 4/11/3 2/5/4 
usemtl scene_material
f 1/2/5 2/4/6 6/16/7 5/14/8 
usemtl scene_material
f 1/3/9 5/13/10 7/20/11 3/8/12 
usemtl scene_material
f 2/6/13 4/10/14 8/22/15 6/17/16 
usemtl scene_material
f 3/9/17 7/19/18 8/23/19 4/12/20 
usemtl scene_material
f 5/15/21 6/18/22 8/24/23 7/21/24 
usemtl scene_material
f 9/25/25 11/31/26 12/35/27 10/29/28 
usemtl scene_material
f 9/26/29 10/28/30 14/40/31 13/38/32 
usemtl scene_material
f 9/27/33 13/37/34 15/44/35 11/32/36 
usemtl scene_material
f 10/30/37 12/34/38 16/46/39 14/41/40 
usemtl scene_material
f 11/33/41 15/43/42 16/47/43 12/36/44 
usemtl scene_material
f 13/39/45 14/42/46 16/48/47 15/45/48 
usemtl scene_material
f 17/49/49 19/55/50 20/59/51 18/53/52 
usemtl scene_material
f 17/50/53 18/52/54 22/64/55 21/62/56 
usemtl scene_material
f 17/51/57 21/61/58 23/68/59 19/56/60 
usemtl scene_material
f 18/54/61 20/58/62 24/70/63 22/65/64 
usemtl scene_material
f 19/57/65 23/67/66 24/71/67 20/60/68 
usemtl scene_material
f 21/63/69 22/66/70 24/72/71 23/69/72 
usemtl scene_material
f 25/73/73 27/79/74 28/82/75 26/77/76 
usemtl scene_material
f 25/74/77 26/76/78 30/86/79 29/84/80 
usemtl scene_material
f 25/75/81 29/83/82 31/90/83 27/80/84 
usemtl scene_material
f 26/78/85 28/81/86 32/92/87 30/87/88 
usemtl scene_material
f 27/80/89 31/89/90 32/93/91 28/81/92 
usemtl scene_material
f 29/85/93 30/88/94 32/94/95 31/91/96 
usemtl scene_material
f 36/104/100 35/100/99 33/96/98 34/99/97 
usemtl scene_material
f 38/109/104 34/97/103 33/95/102 37/106/101 
usemtl scene_material
f 40/114/108 36/102/107 34/98/106 38/108/105 
usemtl scene_material
f 40/113/112 39/110/111 35/101/110 36/103/109 
usemtl scene_material
f 40/112/116 38/107/115 37/105/114 39/111/113 
usemtl scene_material
f 45/127/120 46/128/119 48/134/118 47/132/117 
usemtl scene_material
f 41/115/121 43/120/122 44/123/123 42/119/124 
usemtl scene_material
f 41/116/125 42/118/126 46/129/127 45/126/128 
usemtl scene_material
f 41/117/129 45/125/130 47/131/131 43/121/132 
usemtl scene_material
f 43/122/136 47/130/135 48/133/134 44/124/133 
#end 34 faces
