# XSI Wavefront OBJ Export v3.0
# File Created: Fri Mar 24 01:59:06 2017
# XSI Version: 11.0.525.0
mtllib Normal_Fractional.mtl

o Fractional
# Hierarchy (from self to top father)
g Fractional

#begin 48 vertices
v -4.089297 10.808711 -0.070875
v 4.190843 10.808711 -0.070875
v -4.089297 10.948249 -0.070875
v 4.190843 10.948249 -0.070875
v -4.089297 10.808711 0.035332
v 4.190843 10.808711 0.035332
v -4.089297 10.948249 0.035332
v 4.190843 10.948249 0.035332
v -1.365050 14.929932 -0.070875
v 4.175003 10.808893 -0.070875
v -1.225511 14.929932 -0.070875
v 4.314541 10.808893 -0.070875
v -1.365050 14.929932 0.035332
v 4.314541 10.808893 0.035332
v -1.225511 14.929932 0.035332
v 4.175003 10.808893 0.035332
v 4.314461 14.930217 -0.070875
v -4.153660 14.930217 -0.070875
v 4.314461 14.778953 -0.070875
v -4.153660 14.778953 -0.070875
v 4.314461 14.930217 0.035332
v -4.153660 14.930217 0.035332
v 4.314461 14.778953 0.035332
v -4.153660 14.778953 0.035332
v -4.014192 10.808972 -0.070875
v -4.153731 10.808972 -0.070875
v -4.153731 10.808972 0.035332
v -4.014192 10.808972 0.035332
v -1.225511 10.846829 -0.070875
v -1.365050 10.846829 -0.070875
v -1.365050 10.846829 0.035332
v -1.225511 10.846829 0.035332
v -4.014192 14.930304 0.035332
v -4.153731 14.930304 0.035332
v -4.014192 14.930304 -0.070875
v -4.153731 14.930304 -0.070875
v 4.314541 14.930255 0.035332
v 4.175003 14.930255 0.035332
v 4.314541 14.930255 -0.070875
v 4.175003 14.930255 -0.070875
v 1.398311 14.929932 -0.070875
v 1.537849 14.929932 -0.070875
v 1.537849 10.846829 -0.070875
v 1.398311 10.846829 -0.070875
v 1.398311 10.846829 0.035332
v 1.398311 14.929932 0.035332
v 1.537849 14.929932 0.035332
v 1.537849 10.846829 0.035332
#end 48 vertices

#begin 136 normals
vn 0.000000 -0.000000 -1.000000
vn 0.000000 -0.000000 -1.000000
vn 0.000000 -0.000000 -1.000000
vn 0.000000 -0.000000 -1.000000
vn -0.000000 -1.000000 0.000000
vn -0.000000 -1.000000 0.000000
vn -0.000000 -1.000000 0.000000
vn -0.000000 -1.000000 0.000000
vn -1.000000 0.000000 -0.000000
vn -1.000000 0.000000 -0.000000
vn -1.000000 0.000000 -0.000000
vn -1.000000 0.000000 -0.000000
vn 1.000000 0.000000 0.000000
vn 1.000000 0.000000 0.000000
vn 1.000000 0.000000 0.000000
vn 1.000000 0.000000 0.000000
vn 0.000000 1.000000 0.000000
vn 0.000000 1.000000 0.000000
vn 0.000000 1.000000 0.000000
vn 0.000000 1.000000 0.000000
vn 0.000000 0.000000 1.000000
vn 0.000000 0.000000 1.000000
vn 0.000000 0.000000 1.000000
vn 0.000000 0.000000 1.000000
vn 0.000000 -0.000000 -1.000000
vn 0.000000 -0.000000 -1.000000
vn 0.000000 -0.000000 1.000000
vn 1.000000 0.000000 0.000000
vn -1.000000 0.000000 0.000000
vn 0.000000 -0.000000 1.000000
vn -1.000000 0.000000 0.000000
vn -1.000000 0.000000 0.000000
vn 0.000000 1.000000 0.000000
vn 0.000000 1.000000 0.000000
vn 0.000000 1.000000 0.000000
vn 0.000000 1.000000 0.000000
vn 1.000000 0.000000 0.000000
vn -0.000000 0.000000 -1.000000
vn -1.000000 -0.000000 0.000000
vn -0.000000 0.000000 -1.000000
vn 1.000000 0.000000 0.000000
vn 1.000000 0.000000 0.000000
vn 0.000000 -0.000000 1.000000
vn -1.000000 -0.000000 0.000000
vn -0.000000 0.000000 1.000000
vn 0.000000 -0.000000 1.000000
vn 1.000000 0.000000 0.000000
vn -0.000000 0.000000 1.000000
vn 0.000000 0.000000 -1.000000
vn 0.000000 0.000000 -1.000000
vn 0.000000 0.000000 -1.000000
vn 0.000000 0.000000 -1.000000
vn -0.000000 1.000000 0.000000
vn -0.000000 1.000000 0.000000
vn -0.000000 1.000000 0.000000
vn -0.000000 1.000000 0.000000
vn 1.000000 0.000000 0.000000
vn 1.000000 0.000000 0.000000
vn 1.000000 0.000000 0.000000
vn 1.000000 0.000000 0.000000
vn -1.000000 0.000000 0.000000
vn -1.000000 0.000000 0.000000
vn -1.000000 0.000000 0.000000
vn -1.000000 0.000000 0.000000
vn 0.000000 -1.000000 0.000000
vn 0.000000 -1.000000 0.000000
vn 0.000000 -1.000000 0.000000
vn 0.000000 -1.000000 0.000000
vn -0.000000 0.000000 1.000000
vn -0.000000 0.000000 1.000000
vn -0.000000 0.000000 1.000000
vn -0.000000 0.000000 1.000000
vn 0.000000 -1.000000 0.000000
vn 0.000000 -1.000000 0.000000
vn 0.000000 -1.000000 0.000000
vn 0.000000 -1.000000 0.000000
vn 0.000000 -1.000000 0.000000
vn 0.000000 -1.000000 0.000000
vn 0.000000 -1.000000 0.000000
vn 0.000000 -1.000000 0.000000
vn -0.000000 0.000000 1.000000
vn -0.000000 0.000000 1.000000
vn -0.000000 0.000000 1.000000
vn -0.000000 0.000000 1.000000
vn 1.000000 0.000000 0.000000
vn 0.000000 -0.000000 -1.000000
vn -1.000000 0.000000 0.000000
vn 0.000000 -0.000000 -1.000000
vn -0.000000 0.000000 1.000000
vn -1.000000 0.000000 0.000000
vn -0.000000 0.000000 1.000000
vn 1.000000 0.000000 0.000000
vn -1.000000 0.000000 0.000000
vn -0.000000 0.000000 -1.000000
vn 1.000000 0.000000 0.000000
vn -0.000000 0.000000 -1.000000
vn 0.000000 -0.000000 1.000000
vn 0.000000 -0.000000 1.000000
vn 1.000000 0.000000 0.000000
vn 1.000000 0.000000 0.000000
vn 0.000000 1.000000 0.000000
vn 0.000000 1.000000 0.000000
vn 0.000000 1.000000 0.000000
vn 0.000000 1.000000 0.000000
vn -1.000000 -0.000000 0.000000
vn -1.000000 -0.000000 0.000000
vn -0.000000 0.000000 -1.000000
vn -0.000000 0.000000 -1.000000
vn 0.000000 -0.000000 1.000000
vn 0.000000 -0.000000 1.000000
vn 1.000000 0.000000 0.000000
vn 1.000000 0.000000 0.000000
vn 0.000000 1.000000 0.000000
vn 0.000000 1.000000 0.000000
vn 0.000000 1.000000 0.000000
vn 0.000000 1.000000 0.000000
vn -1.000000 0.000000 0.000000
vn -1.000000 0.000000 0.000000
vn -0.000000 0.000000 -1.000000
vn -0.000000 0.000000 -1.000000
vn 0.000000 -0.000000 -1.000000
vn 0.000000 -0.000000 -1.000000
vn 0.000000 -0.000000 -1.000000
vn 0.000000 -0.000000 -1.000000
vn -1.000000 0.000000 0.000000
vn -1.000000 0.000000 0.000000
vn -1.000000 0.000000 0.000000
vn -1.000000 0.000000 0.000000
vn 0.000000 1.000000 0.000000
vn 0.000000 1.000000 0.000000
vn 0.000000 1.000000 0.000000
vn 0.000000 1.000000 0.000000
vn 1.000000 0.000000 0.000000
vn 1.000000 0.000000 0.000000
vn 1.000000 0.000000 0.000000
vn 1.000000 0.000000 0.000000
#end 136 vertex normals

#begin texture vertices
vt 0.992391 0.000000 0.000000
vt 0.007609 0.000000 0.000000
vt 0.000000 0.000000 0.000000
vt 0.985393 0.000000 0.000000
vt 0.014607 0.000000 0.000000
vt 1.000000 0.000000 0.000000
vt 0.992391 0.033855 0.000000
vt 0.000000 0.033855 0.000000
vt 0.007609 1.000000 0.000000
vt 1.000000 0.033855 0.000000
vt 0.014607 0.033855 0.000000
vt 0.985393 1.000000 0.000000
vt 1.000000 0.000000 0.000000
vt 0.007609 1.000000 0.000000
vt 0.007609 0.000000 0.000000
vt 0.985393 1.000000 0.000000
vt 0.000000 0.000000 0.000000
vt 0.985393 0.000000 0.000000
vt 0.007609 0.000000 0.000000
vt 1.000000 0.033855 0.000000
vt 0.007609 0.033855 0.000000
vt 0.000000 0.033855 0.000000
vt 0.985393 0.000000 0.000000
vt 0.985393 0.033855 0.000000
vt 0.670691 0.999910 0.000000
vt 0.000000 0.999910 0.000000
vt 0.329309 1.000000 0.000000
vt 0.000000 0.000044 0.000000
vt 0.016478 0.000044 0.000000
vt 0.654213 0.999910 0.000000
vt 0.345787 1.000000 0.000000
vt 1.000000 0.999910 0.000000
vt 0.000000 0.000044 0.000000
vt 1.000000 0.000044 0.000000
vt 0.329309 0.000000 0.000000
vt 1.000000 0.999910 0.000000
vt 0.329309 0.999910 0.000000
vt 0.000000 0.000044 0.000000
vt 1.000000 0.000044 0.000000
vt 0.000000 0.999910 0.000000
vt 0.345787 0.000000 0.000000
vt 0.345787 0.999910 0.000000
vt 0.983522 0.000044 0.000000
vt 1.000000 0.000044 0.000000
vt 0.000010 0.999979 0.000000
vt 0.999990 1.000000 0.000000
vt 1.000000 0.999979 0.000000
vt 0.000008 1.000000 0.000000
vt 0.999992 0.999979 0.000000
vt 0.000000 0.999979 0.000000
vt 0.000010 0.963279 0.000000
vt 1.000000 0.963279 0.000000
vt 0.999990 0.000000 0.000000
vt 0.000000 0.963279 0.000000
vt 0.999992 0.963279 0.000000
vt 0.000008 0.000000 0.000000
vt 0.000000 0.999979 0.000000
vt 0.999990 0.000000 0.000000
vt 0.999990 0.999979 0.000000
vt 0.000008 0.000000 0.000000
vt 1.000000 0.999979 0.000000
vt 0.000008 0.999979 0.000000
vt 0.999990 1.000000 0.000000
vt 0.000000 0.963279 0.000000
vt 0.999990 0.963279 0.000000
vt 1.000000 0.963279 0.000000
vt 0.000008 1.000000 0.000000
vt 0.000008 0.963279 0.000000
vt 0.983522 0.000064 0.000000
vt 1.000000 0.000064 0.000000
vt 0.000000 0.000064 0.000000
vt 1.000000 0.000064 0.000000
vt 0.000000 0.000064 0.000000
vt 1.000000 0.000064 0.000000
vt 0.000000 0.000064 0.000000
vt 0.016478 0.000064 0.000000
vt 0.654213 0.009248 0.000000
vt 1.000000 0.009248 0.000000
vt 0.345787 0.000000 0.000000
vt 0.000000 0.009248 0.000000
vt 0.670691 0.009248 0.000000
vt 0.329309 0.000000 0.000000
vt 0.329309 0.009248 0.000000
vt 1.000000 0.009248 0.000000
vt 0.329309 1.000000 0.000000
vt 0.000000 0.009248 0.000000
vt 0.345787 0.009248 0.000000
vt 0.345787 1.000000 0.000000
vt 0.000000 1.000000 0.000000
vt 0.016478 0.000000 0.000000
vt 0.016478 1.000000 0.000000
vt 0.000000 0.000000 0.000000
vt 1.000000 1.000000 0.000000
vt 0.000000 1.000000 0.000000
vt 0.983522 1.000000 0.000000
vt 0.016478 1.000000 0.000000
vt 1.000000 1.000000 0.000000
vt 1.000000 1.000000 0.000000
vt 0.000000 1.000000 0.000000
vt 0.000000 0.999988 0.000000
vt 1.000000 0.000000 0.000000
vt 1.000000 0.999988 0.000000
vt 0.983522 0.000000 0.000000
vt 1.000000 0.999988 0.000000
vt 0.983522 0.999988 0.000000
vt 0.000000 0.999988 0.000000
vt 1.000000 1.000000 0.000000
vt 1.000000 0.999988 0.000000
vt 0.016478 0.999988 0.000000
vt 0.000000 0.999988 0.000000
vt 0.983522 1.000000 0.000000
vt 0.344371 0.999910 0.000000
vt 0.000000 0.999910 0.000000
vt 0.655629 1.000000 0.000000
vt 0.327894 0.999910 0.000000
vt 0.672106 1.000000 0.000000
vt 1.000000 0.999910 0.000000
vt 0.327894 0.009248 0.000000
vt 1.000000 0.009248 0.000000
vt 0.672106 0.000000 0.000000
vt 0.000000 0.009248 0.000000
vt 0.344371 0.009248 0.000000
vt 0.655629 0.000000 0.000000
vt 0.655629 0.009248 0.000000
vt 1.000000 0.009248 0.000000
vt 0.655629 1.000000 0.000000
vt 0.655629 0.000000 0.000000
vt 1.000000 0.999910 0.000000
vt 0.655629 0.999910 0.000000
vt 0.000000 0.999910 0.000000
vt 0.672106 0.000000 0.000000
vt 0.672106 0.999910 0.000000
vt 0.000000 0.009248 0.000000
vt 0.672106 0.009248 0.000000
vt 0.672106 1.000000 0.000000
#end 135 texture vertices

#begin 34 faces
usemtl scene_material
f 1/1/1 3/7/2 4/11/3 2/5/4 
usemtl scene_material
f 1/2/5 2/4/6 6/16/7 5/14/8 
usemtl scene_material
f 1/3/9 5/13/10 7/20/11 3/8/12 
usemtl scene_material
f 2/6/13 4/10/14 8/22/15 6/17/16 
usemtl scene_material
f 3/9/17 7/19/18 8/23/19 4/12/20 
usemtl scene_material
f 5/15/21 6/18/22 8/24/23 7/21/24 
usemtl scene_material
f 9/25/25 11/30/26 29/77/86 30/81/88 
usemtl scene_material
f 9/26/29 30/80/87 31/84/90 13/36/32 
usemtl scene_material
f 9/27/33 13/35/34 15/41/35 11/31/36 
usemtl scene_material
f 34/94/98 27/73/43 28/76/46 33/91/97 
usemtl scene_material
f 11/32/41 15/40/42 32/86/92 29/78/85 
usemtl scene_material
f 13/37/45 31/83/89 32/87/91 15/42/48 
usemtl scene_material
f 17/45/49 19/51/50 20/55/51 18/49/52 
usemtl scene_material
f 17/46/53 18/48/54 22/60/55 21/58/56 
usemtl scene_material
f 17/47/57 21/57/58 23/64/59 19/52/60 
usemtl scene_material
f 18/50/61 20/54/62 24/66/63 22/61/64 
usemtl scene_material
f 19/53/65 23/63/66 24/67/67 20/56/68 
usemtl scene_material
f 21/59/69 22/62/70 24/68/71 23/65/72 
usemtl scene_material
f 48/135/76 45/126/75 44/123/74 43/120/73 
usemtl scene_material
f 32/88/80 31/85/79 30/82/78 29/79/77 
usemtl scene_material
f 46/129/84 45/124/83 48/134/82 47/132/81 
usemtl scene_material
f 35/97/100 33/89/99 28/75/47 25/70/37 
usemtl scene_material
f 36/99/104 34/92/103 33/90/102 35/96/101 
usemtl scene_material
f 36/99/106 26/71/39 27/74/44 34/93/105 
usemtl scene_material
f 36/98/108 35/95/107 25/69/38 26/72/40 
usemtl scene_material
f 38/105/110 16/43/30 14/39/27 37/102/109 
usemtl scene_material
f 39/108/112 37/100/111 14/38/28 12/34/95 
usemtl scene_material
f 40/111/116 38/103/115 37/101/114 39/107/113 
usemtl scene_material
f 40/110/118 10/28/93 16/44/31 38/104/117 
usemtl scene_material
f 40/109/120 39/106/119 12/33/96 10/29/94 
usemtl scene_material
f 41/112/121 42/115/122 43/118/123 44/122/124 
usemtl scene_material
f 41/113/125 44/121/126 45/125/127 46/128/128 
usemtl scene_material
f 41/114/129 46/127/130 47/131/131 42/116/132 
usemtl scene_material
f 42/117/133 47/130/134 48/133/135 43/119/136 
#end 34 faces
