# XSI Wavefront OBJ Export v3.0
# File Created: Fri Mar 24 01:59:06 2017
# XSI Version: 11.0.525.0
mtllib Normal_SH_Half_Colonial.mtl

o SH_Half_Colonial
# Hierarchy (from self to top father)
g SH_Half_Colonial

#begin 60 vertices
v -4.021102 8.453965 0.320207
v -4.021102 8.453965 0.426413
v -4.160641 8.453965 0.426413
v -4.160641 8.453965 0.320207
v -4.096207 11.442057 0.320207
v 4.183933 11.442057 0.320207
v -4.096207 11.581595 0.320207
v 4.183933 11.581595 0.320207
v -4.096207 11.442057 0.426413
v 4.183933 11.442057 0.426413
v -4.096207 11.581595 0.426413
v 4.183933 11.581595 0.426413
v -0.025906 14.878124 0.320207
v -4.160641 14.878496 0.320207
v 0.113632 14.878124 0.320207
v 4.307631 14.878446 0.426413
v -0.025906 14.878124 0.426413
v -4.021102 14.878496 0.320207
v 0.113632 14.878124 0.426413
v 4.168093 14.878446 0.426413
v 4.307551 14.878409 0.320207
v -4.160570 14.878409 0.320207
v 4.307551 14.727145 0.320207
v -4.160570 14.727145 0.320207
v 4.307551 14.878409 0.426413
v -4.160570 14.878409 0.426413
v 4.307551 14.727145 0.426413
v -4.160570 14.727145 0.426413
v -4.160641 14.878496 0.426413
v 4.307631 14.878446 0.320207
v -4.021102 14.878496 0.426413
v 4.168093 14.878446 0.320207
v 4.168093 8.315076 0.320207
v 4.307631 8.315076 0.320207
v 4.307631 8.315076 0.426413
v 4.168093 8.315076 0.426413
v -4.021102 8.315076 0.320207
v -4.160641 8.315076 0.320207
v -4.160641 8.315076 0.426413
v -4.021102 8.315076 0.426413
v 0.113632 8.300024 0.320207
v -0.025906 8.300024 0.320207
v -0.025906 8.300024 0.426413
v 0.113632 8.300024 0.426413
v -0.025906 8.453593 0.320207
v -0.025906 8.453593 0.426413
v 0.113632 8.453593 0.426413
v 0.113632 8.453593 0.320207
v 4.307551 8.453878 0.320207
v 4.307551 8.302614 0.320207
v -4.160570 8.302614 0.320207
v -4.160570 8.453878 0.320207
v -4.160570 8.453878 0.426413
v 4.307551 8.453878 0.426413
v 4.307551 8.302614 0.426413
v -4.160570 8.302614 0.426413
v 4.168093 8.453916 0.320207
v 4.168093 8.453916 0.426413
v 4.307631 8.453916 0.426413
v 4.307631 8.453916 0.320207
#end 60 vertices

#begin 156 normals
vn 0.000000 1.000000 0.000000
vn 0.000000 1.000000 0.000000
vn 0.000000 1.000000 0.000000
vn 0.000000 1.000000 0.000000
vn 0.000000 -0.000000 -1.000000
vn 0.000000 -0.000000 -1.000000
vn 0.000000 -0.000000 -1.000000
vn 0.000000 -0.000000 -1.000000
vn -0.000000 -1.000000 0.000000
vn -0.000000 -1.000000 0.000000
vn -0.000000 -1.000000 0.000000
vn -0.000000 -1.000000 0.000000
vn -1.000000 0.000000 -0.000000
vn -1.000000 0.000000 -0.000000
vn -1.000000 0.000000 -0.000000
vn -1.000000 0.000000 -0.000000
vn 1.000000 0.000000 0.000000
vn 1.000000 0.000000 0.000000
vn 1.000000 0.000000 0.000000
vn 1.000000 0.000000 0.000000
vn 0.000000 1.000000 0.000000
vn 0.000000 1.000000 0.000000
vn 0.000000 1.000000 0.000000
vn 0.000000 1.000000 0.000000
vn 0.000000 0.000000 1.000000
vn 0.000000 0.000000 1.000000
vn 0.000000 0.000000 1.000000
vn 0.000000 0.000000 1.000000
vn 0.000000 -0.000000 -1.000000
vn 0.000000 -0.000000 -1.000000
vn 0.000000 -0.000000 1.000000
vn 0.000000 -0.000000 1.000000
vn -1.000000 0.000000 0.000000
vn 1.000000 0.000000 0.000000
vn 1.000000 0.000000 0.000000
vn -1.000000 0.000000 0.000000
vn 0.000000 1.000000 0.000000
vn 0.000000 1.000000 0.000000
vn 0.000000 1.000000 0.000000
vn 0.000000 1.000000 0.000000
vn -0.000000 0.000000 -1.000000
vn -0.000000 0.000000 -1.000000
vn -1.000000 -0.000000 0.000000
vn -1.000000 -0.000000 0.000000
vn 1.000000 0.000000 0.000000
vn 1.000000 0.000000 0.000000
vn 0.000000 1.000000 0.000000
vn 0.000000 1.000000 0.000000
vn -0.000000 0.000000 1.000000
vn 0.000000 1.000000 0.000000
vn 0.000000 1.000000 0.000000
vn -0.000000 0.000000 1.000000
vn 0.000000 0.000000 -1.000000
vn 0.000000 0.000000 -1.000000
vn 0.000000 0.000000 -1.000000
vn 0.000000 0.000000 -1.000000
vn -0.000000 1.000000 0.000000
vn -0.000000 1.000000 0.000000
vn -0.000000 1.000000 0.000000
vn -0.000000 1.000000 0.000000
vn 1.000000 0.000000 0.000000
vn 1.000000 0.000000 0.000000
vn 1.000000 0.000000 0.000000
vn 1.000000 0.000000 0.000000
vn -1.000000 0.000000 0.000000
vn -1.000000 0.000000 0.000000
vn -1.000000 0.000000 0.000000
vn -1.000000 0.000000 0.000000
vn 0.000000 -1.000000 0.000000
vn 0.000000 -1.000000 0.000000
vn 0.000000 -1.000000 0.000000
vn 0.000000 -1.000000 0.000000
vn -0.000000 0.000000 1.000000
vn -0.000000 0.000000 1.000000
vn -0.000000 0.000000 1.000000
vn -0.000000 0.000000 1.000000
vn 0.000000 -1.000000 0.000000
vn 0.000000 -1.000000 0.000000
vn 0.000000 -1.000000 0.000000
vn 0.000000 -1.000000 0.000000
vn 0.000000 -1.000000 0.000000
vn 0.000000 -1.000000 0.000000
vn 0.000000 -1.000000 0.000000
vn 0.000000 -1.000000 0.000000
vn 0.000000 -1.000000 0.000000
vn 0.000000 -1.000000 0.000000
vn 0.000000 -1.000000 0.000000
vn 0.000000 -1.000000 0.000000
vn -1.000000 -0.000000 0.000000
vn 0.000000 1.000000 0.000000
vn 0.000000 1.000000 0.000000
vn -1.000000 -0.000000 0.000000
vn 0.000000 1.000000 0.000000
vn 0.000000 1.000000 0.000000
vn -0.000000 0.000000 -1.000000
vn -0.000000 0.000000 -1.000000
vn -1.000000 -0.000000 0.000000
vn -0.000000 0.000000 -1.000000
vn 1.000000 0.000000 0.000000
vn -0.000000 0.000000 -1.000000
vn 0.000000 -0.000000 1.000000
vn 1.000000 0.000000 0.000000
vn 0.000000 -0.000000 1.000000
vn -1.000000 -0.000000 0.000000
vn 1.000000 0.000000 0.000000
vn -0.000000 0.000000 -1.000000
vn -1.000000 -0.000000 0.000000
vn -0.000000 0.000000 -1.000000
vn 0.000000 -0.000000 1.000000
vn -1.000000 -0.000000 0.000000
vn 0.000000 -0.000000 1.000000
vn 1.000000 0.000000 0.000000
vn 1.000000 0.000000 0.000000
vn 0.000000 -0.000000 -1.000000
vn -1.000000 0.000000 0.000000
vn 0.000000 -0.000000 -1.000000
vn -0.000000 0.000000 1.000000
vn -1.000000 0.000000 0.000000
vn -0.000000 0.000000 1.000000
vn 1.000000 0.000000 0.000000
vn 0.000000 -0.000000 1.000000
vn 0.000000 -0.000000 1.000000
vn 1.000000 0.000000 0.000000
vn 1.000000 0.000000 0.000000
vn 0.000000 1.000000 0.000000
vn 0.000000 1.000000 0.000000
vn 0.000000 1.000000 0.000000
vn 0.000000 1.000000 0.000000
vn 0.000000 0.000000 -1.000000
vn 0.000000 0.000000 -1.000000
vn 0.000000 0.000000 -1.000000
vn 0.000000 0.000000 -1.000000
vn -0.000000 1.000000 0.000000
vn -0.000000 1.000000 0.000000
vn -0.000000 1.000000 0.000000
vn -0.000000 1.000000 0.000000
vn 1.000000 0.000000 0.000000
vn 1.000000 0.000000 0.000000
vn 1.000000 0.000000 0.000000
vn 1.000000 0.000000 0.000000
vn -1.000000 0.000000 0.000000
vn -1.000000 0.000000 0.000000
vn -1.000000 0.000000 0.000000
vn -1.000000 0.000000 0.000000
vn 0.000000 -1.000000 0.000000
vn 0.000000 -1.000000 0.000000
vn 0.000000 -1.000000 0.000000
vn 0.000000 -1.000000 0.000000
vn -0.000000 0.000000 1.000000
vn -0.000000 0.000000 1.000000
vn -0.000000 0.000000 1.000000
vn -0.000000 0.000000 1.000000
vn 0.000000 1.000000 0.000000
vn 0.000000 1.000000 0.000000
vn 0.000000 1.000000 0.000000
vn 0.000000 1.000000 0.000000
#end 156 vertex normals

#begin texture vertices
vt 0.016478 1.000000 0.000000
vt 0.016478 0.000000 0.000000
vt 0.000000 0.000000 0.000000
vt 0.000000 1.000000 0.000000
vt 0.992391 0.477623 0.000000
vt 0.007609 0.000000 0.000000
vt 0.000000 0.477623 0.000000
vt 0.985393 0.000000 0.000000
vt 0.014607 0.477623 0.000000
vt 1.000000 0.477623 0.000000
vt 0.992391 0.498835 0.000000
vt 0.000000 0.498835 0.000000
vt 0.007609 1.000000 0.000000
vt 1.000000 0.498835 0.000000
vt 0.014607 0.498835 0.000000
vt 0.985393 1.000000 0.000000
vt 1.000000 0.477623 0.000000
vt 0.007609 1.000000 0.000000
vt 0.007609 0.477623 0.000000
vt 0.985393 1.000000 0.000000
vt 0.000000 0.477623 0.000000
vt 0.985393 0.477623 0.000000
vt 0.007609 0.000000 0.000000
vt 1.000000 0.498835 0.000000
vt 0.007609 0.498835 0.000000
vt 0.000000 0.498835 0.000000
vt 0.985393 0.000000 0.000000
vt 0.985393 0.498835 0.000000
vt 0.511738 0.999943 0.000000
vt 0.000000 0.999943 0.000000
vt 0.488262 1.000000 0.000000
vt 1.000000 1.000000 0.000000
vt 0.000000 1.000000 0.000000
vt 0.495260 0.999943 0.000000
vt 0.504740 1.000000 0.000000
vt 1.000000 0.999943 0.000000
vt 0.000000 0.999993 0.000000
vt 1.000000 0.000000 0.000000
vt 1.000000 0.999993 0.000000
vt 0.488262 0.000000 0.000000
vt 1.000000 0.999943 0.000000
vt 0.488262 0.999943 0.000000
vt 0.983522 1.000000 0.000000
vt 0.016478 1.000000 0.000000
vt 1.000000 1.000000 0.000000
vt 0.000000 0.999943 0.000000
vt 0.504740 0.000000 0.000000
vt 0.504740 0.999943 0.000000
vt 0.983522 0.000000 0.000000
vt 1.000000 0.999993 0.000000
vt 0.983522 0.999993 0.000000
vt 0.000010 0.999987 0.000000
vt 0.999990 1.000000 0.000000
vt 1.000000 0.999987 0.000000
vt 0.000008 1.000000 0.000000
vt 0.999992 0.999987 0.000000
vt 0.000000 0.999987 0.000000
vt 0.000010 0.976993 0.000000
vt 1.000000 0.976993 0.000000
vt 0.999990 0.000000 0.000000
vt 0.000000 0.976993 0.000000
vt 0.999992 0.976993 0.000000
vt 0.000008 0.000000 0.000000
vt 0.000000 0.999987 0.000000
vt 0.999990 0.000000 0.000000
vt 0.999990 0.999987 0.000000
vt 0.000008 0.000000 0.000000
vt 1.000000 0.999987 0.000000
vt 0.000008 0.999987 0.000000
vt 0.999990 1.000000 0.000000
vt 0.000000 0.976993 0.000000
vt 0.999990 0.976993 0.000000
vt 1.000000 0.976993 0.000000
vt 0.000008 1.000000 0.000000
vt 0.000008 0.976993 0.000000
vt 0.000000 0.000000 0.000000
vt 1.000000 1.000000 0.000000
vt 0.000000 1.000000 0.000000
vt 0.000000 0.999993 0.000000
vt 1.000000 1.000000 0.000000
vt 1.000000 0.999993 0.000000
vt 0.000000 1.000000 0.000000
vt 0.016478 0.000000 0.000000
vt 0.016478 1.000000 0.000000
vt 0.016478 0.999993 0.000000
vt 0.000000 0.999993 0.000000
vt 0.983522 1.000000 0.000000
vt 0.000000 0.002288 0.000000
vt 0.016478 0.002288 0.000000
vt 0.983522 0.000000 0.000000
vt 0.000000 0.002288 0.000000
vt 1.000000 0.002288 0.000000
vt 1.000000 0.000000 0.000000
vt 0.000000 0.002288 0.000000
vt 1.000000 0.002288 0.000000
vt 1.000000 1.000000 0.000000
vt 0.983522 0.002288 0.000000
vt 1.000000 0.002288 0.000000
vt 0.983522 1.000000 0.000000
vt 0.983522 0.002288 0.000000
vt 1.000000 0.002288 0.000000
vt 0.016478 0.000000 0.000000
vt 0.000000 0.002288 0.000000
vt 1.000000 0.002288 0.000000
vt 0.000000 0.000000 0.000000
vt 0.000000 0.002288 0.000000
vt 1.000000 0.002288 0.000000
vt 0.000000 1.000000 0.000000
vt 0.000000 0.002288 0.000000
vt 0.016478 0.002288 0.000000
vt 0.016478 1.000000 0.000000
vt 0.495260 0.000000 0.000000
vt 1.000000 0.000000 0.000000
vt 0.504740 0.000000 0.000000
vt 0.000000 0.000000 0.000000
vt 0.511738 0.000000 0.000000
vt 0.488262 0.000000 0.000000
vt 0.488262 0.000000 0.000000
vt 1.000000 0.000000 0.000000
vt 0.488262 1.000000 0.000000
vt 0.000000 0.000000 0.000000
vt 0.504740 0.000000 0.000000
vt 0.504740 1.000000 0.000000
vt 0.488262 1.000000 0.000000
vt 0.488262 0.000000 0.000000
vt 0.504740 0.000000 0.000000
vt 0.504740 1.000000 0.000000
vt 0.000010 0.023387 0.000000
vt 0.999990 1.000000 0.000000
vt 1.000000 0.023387 0.000000
vt 0.000010 0.000394 0.000000
vt 1.000000 0.000394 0.000000
vt 0.999990 0.000000 0.000000
vt 0.000000 0.000394 0.000000
vt 0.999992 0.000394 0.000000
vt 0.000008 0.000000 0.000000
vt 0.000008 1.000000 0.000000
vt 0.999992 0.023387 0.000000
vt 0.000000 0.023387 0.000000
vt 0.000008 0.000000 0.000000
vt 1.000000 0.023387 0.000000
vt 0.000008 0.023387 0.000000
vt 0.000000 0.023387 0.000000
vt 0.999990 0.000000 0.000000
vt 0.999990 0.023387 0.000000
vt 0.999990 1.000000 0.000000
vt 0.000000 0.000394 0.000000
vt 0.999990 0.000394 0.000000
vt 1.000000 0.000394 0.000000
vt 0.000008 1.000000 0.000000
vt 0.000008 0.000394 0.000000
vt 0.983522 1.000000 0.000000
vt 0.983522 0.000000 0.000000
vt 1.000000 0.000000 0.000000
vt 1.000000 1.000000 0.000000
#end 155 texture vertices

#begin 39 faces
usemtl scene_material
f 4/4/4 3/3/3 2/2/2 1/1/1 
usemtl scene_material
f 5/5/5 7/11/6 8/15/7 6/9/8 
usemtl scene_material
f 5/6/9 6/8/10 10/20/11 9/18/12 
usemtl scene_material
f 5/7/13 9/17/14 11/24/15 7/12/16 
usemtl scene_material
f 6/10/17 8/14/18 12/26/19 10/21/20 
usemtl scene_material
f 7/13/21 11/23/22 12/27/23 8/16/24 
usemtl scene_material
f 9/19/25 10/22/26 12/28/27 11/25/28 
usemtl scene_material
f 13/29/29 15/34/30 41/112/114 42/116/116 
usemtl scene_material
f 13/30/33 42/115/115 43/119/118 17/41/36 
usemtl scene_material
f 13/31/37 17/40/38 19/47/39 15/35/40 
usemtl scene_material
f 30/81/35 16/37/34 35/94/102 34/92/99 
usemtl scene_material
f 15/36/45 19/46/46 44/121/120 41/113/113 
usemtl scene_material
f 17/42/49 43/118/117 44/122/119 19/48/52 
usemtl scene_material
f 21/52/53 23/58/54 24/62/55 22/56/56 
usemtl scene_material
f 21/53/57 22/55/58 26/67/59 25/65/60 
usemtl scene_material
f 21/54/61 25/64/62 27/71/63 23/59/64 
usemtl scene_material
f 22/57/65 24/61/66 28/73/67 26/68/68 
usemtl scene_material
f 23/60/69 27/70/70 28/74/71 24/63/72 
usemtl scene_material
f 25/66/73 26/69/74 28/75/75 27/72/76 
usemtl scene_material
f 40/111/80 39/108/79 38/105/78 37/102/77 
usemtl scene_material
f 44/123/84 43/120/83 42/117/82 41/114/81 
usemtl scene_material
f 35/96/88 36/99/87 33/90/86 34/93/85 
usemtl scene_material
f 20/51/31 36/97/103 35/95/101 16/39/32 
usemtl scene_material
f 32/87/51 20/49/50 16/38/48 30/80/47 
usemtl scene_material
f 32/86/92 33/88/97 36/98/104 20/50/89 
usemtl scene_material
f 32/85/96 30/79/95 34/91/100 33/89/98 
usemtl scene_material
f 29/78/122 39/106/109 40/110/111 31/84/121 
usemtl scene_material
f 18/45/124 31/82/123 40/109/112 37/101/105 
usemtl scene_material
f 14/33/90 29/76/91 31/83/93 18/44/94 
usemtl scene_material
f 14/33/43 38/103/107 39/107/110 29/77/44 
usemtl scene_material
f 14/32/41 18/43/42 37/100/106 38/104/108 
usemtl scene_material
f 45/124/125 46/125/126 47/126/127 48/127/128 
usemtl scene_material
f 49/128/129 50/131/130 51/135/131 52/138/132 
usemtl scene_material
f 49/129/133 52/137/134 53/140/135 54/144/136 
usemtl scene_material
f 49/130/137 54/143/138 55/147/139 50/132/140 
usemtl scene_material
f 52/139/141 51/134/142 56/149/143 53/141/144 
usemtl scene_material
f 50/133/145 55/146/146 56/150/147 51/136/148 
usemtl scene_material
f 54/145/149 53/142/150 56/151/151 55/148/152 
usemtl scene_material
f 57/152/153 58/153/154 59/154/155 60/155/156 
#end 39 faces
